<?xml version="1.0" standalone="no"?><!DOCTYPE svg PUBLIC "-//W3C//DTD SVG 1.1//EN" "http://www.w3.org/Graphics/SVG/1.1/DTD/svg11.dtd"><svg class="icon" width="200px" height="200.00px" viewBox="0 0 1024 1024" version="1.1" xmlns="http://www.w3.org/2000/svg"><path d="M1006.8 557.1c0 200.5-213.7 259.1-493.4 259.1S-7.9 729.6 20 531.1C34.1 431 71.9 392.7 154.5 307.6c85.8-88.4 218.6-139.5 358.9-139.5 135.8 0 266.6 45.6 350 131.7 87.5 90.3 143.4 154.1 143.4 257.3z" fill="#542E18" /><path d="M513.4 826.2c-100.6 0-194.2-11.3-270.6-32.8-84.4-23.6-147.4-58.8-187-104.4-38.9-44.7-54.2-98.3-45.7-159.3 7-49.6 19.7-85.7 42.6-120.7 21.8-33.3 51.5-63.9 92.7-106.4l2-2c43-44.3 99.2-80.7 162.6-105.3 62.9-24.4 133.3-37.3 203.5-37.3 69 0 137.5 11.8 198.1 34.2 63.7 23.5 117.2 57.3 159.1 100.6 42.5 43.9 79.8 83.6 105.8 125.5 27.6 44.4 40.4 88.5 40.4 138.7 0 50.5-13.3 94.6-39.7 130.9-24.5 33.8-60.9 61.7-108.1 82.9-82.7 37.3-199.1 55.4-355.7 55.4z m0-648.1c-67.8 0-135.6 12.4-196.2 35.9-60.7 23.5-114.5 58.3-155.5 100.6l-2 2c-40.4 41.6-69.6 71.7-90.3 103.4-21.2 32.4-33 66-39.5 112.5-7.7 55 6 103.2 40.9 143.4 37.1 42.6 96.7 75.7 177.4 98.3 74.7 20.9 166.4 32 265.2 32 153.7 0 267.4-17.5 347.5-53.5 44-19.8 77.6-45.5 100.1-76.4 23.8-32.8 35.9-73 35.9-119.2 0-46.4-11.9-87.1-37.4-128.2-24.9-40.2-61.5-79.1-103.2-122.1-39.8-41.1-90.8-73.3-151.6-95.7-58.5-21.6-124.7-33-191.3-33z"  /><path d="M165.5 307.6v-43.3c0-53.6 43.8-97.4 97.4-97.4 53.6 0 97.4 43.8 97.4 97.4v17.3" fill="#542E18" /><path d="M165.5 317.6c-5.5 0-10-4.5-10-10v-43.3c0-59.2 48.2-107.4 107.4-107.4s107.4 48.2 107.4 107.4v17.3c0 5.5-4.5 10-10 10s-10-4.5-10-10v-17.3c0-48.2-39.2-87.4-87.4-87.4s-87.4 39.2-87.4 87.4v43.3c0 5.6-4.5 10-10 10z"  /><path d="M859.2 307.6v-43.3c0-53.6-43.8-97.4-97.4-97.4-53.6 0-97.4 43.8-97.4 97.4v17.3" fill="#542E18" /><path d="M859.2 317.6c-5.5 0-10-4.5-10-10v-43.3c0-48.2-39.2-87.4-87.4-87.4s-87.4 39.2-87.4 87.4v17.3c0 5.5-4.5 10-10 10s-10-4.5-10-10v-17.3c0-59.2 48.2-107.4 107.4-107.4s107.4 48.2 107.4 107.4v43.3c0 5.6-4.5 10-10 10z"  /><path d="M928.9 586.8s-200.2 99-267.8 90.6v36.3c0 80.2-65.6 145.8-145.8 145.8-80.2 0-145.8-65.6-145.8-145.8v-36.3c-107.1 8.4-273.7-90.6-273.7-90.6" fill="#542E18" /><path d="M515.3 869.5c-41.5 0-80.5-16.2-110-45.8-29.5-29.5-45.8-68.6-45.8-110v-25.8c-44.7 0.8-102.1-13.8-171-43.5-55-23.7-96.1-48-97.9-49-4.7-2.8-6.3-9-3.5-13.7 2.8-4.7 9-6.3 13.7-3.5 1.6 1 165.2 97.3 267.9 89.2 2.8-0.2 5.5 0.7 7.6 2.6 2 1.9 3.2 4.6 3.2 7.3v36.3c0 36.1 14.2 70.2 39.9 95.9s59.8 39.9 95.9 39.9c36.1 0 70.2-14.2 95.9-39.9 25.7-25.7 39.9-59.8 39.9-95.9v-36.3c0-2.9 1.2-5.6 3.4-7.5 2.1-1.9 5-2.8 7.9-2.4 18.1 2.2 59.6-3.1 154.3-41.5 57.5-23.3 107.4-47.9 107.9-48.1 5-2.4 10.9-0.4 13.4 4.5 2.4 5 0.4 10.9-4.5 13.4-0.5 0.2-51.1 25.2-109.2 48.7-70.2 28.4-121.5 43-153 43.4v25.8c0 41.5-16.2 80.5-45.8 110-29.7 29.6-68.8 45.9-110.2 45.9z" fill="#020202" /><path d="M145.5 618.9c-5.5 0-10-4.5-10-10v-43.2c0-5.5 4.5-10 10-10s10 4.5 10 10v43.2c0 5.5-4.5 10-10 10zM196.9 701.6c-5.5 0-10-4.5-10-10v-43.2c0-5.5 4.5-10 10-10s10 4.5 10 10v43.2c0 5.6-4.5 10-10 10zM282.9 672.4c-5.5 0-10-4.5-10-10v-43.2c0-5.5 4.5-10 10-10s10 4.5 10 10v43.2c0 5.5-4.4 10-10 10zM739 672.4c-5.5 0-10-4.5-10-10v-43.2c0-5.5 4.5-10 10-10s10 4.5 10 10v43.2c0 5.5-4.5 10-10 10zM830.7 685.3c-5.5 0-10-4.5-10-10v-43.2c0-5.5 4.5-10 10-10s10 4.5 10 10v43.2c0 5.6-4.5 10-10 10zM883.5 618.4c-5.5 0-10-4.5-10-10v-43.2c0-5.5 4.5-10 10-10s10 4.5 10 10v43.2c0 5.5-4.5 10-10 10zM658.6 750.6c-1.2 0-2.4-0.2-3.5-0.6-86.8-32.5-157.8-31-202-24-48 7.6-75.8 23.1-76.1 23.3-4.8 2.7-10.9 1-13.6-3.8-2.7-4.8-1.1-10.9 3.7-13.6 1.2-0.7 30.5-17.2 81.7-25.5 46.8-7.6 121.8-9.4 213.2 24.8 5.2 1.9 7.8 7.7 5.9 12.9-1.5 4-5.3 6.5-9.3 6.5z" fill="#020202" /><path d="M416 727.2l28.2 44.1 10.9-55.7zM598 727.2l-28.2 44.1-10.9-55.7z" fill="#070707" /><path d="M478.9 615.2c-5.5 0-10-4.5-10-10 0-30.9-25.1-56-56-56s-56 25.1-56 56c0 5.5-4.5 10-10 10s-10-4.5-10-10c0-41.9 34.1-76 76-76s76 34.1 76 76c0 5.5-4.5 10-10 10zM677.8 615.2c-5.5 0-10-4.5-10-10 0-30.9-25.1-56-56-56s-56 25.1-56 56c0 5.5-4.5 10-10 10s-10-4.5-10-10c0-41.9 34.1-76 76-76s76 34.1 76 76c0 5.5-4.5 10-10 10z"  /><path d="M542.8 615.3c-5.5 0-10-4.5-10-10 0-11.2-9.1-20.4-20.4-20.4-11.2 0-20.4 9.1-20.4 20.4 0 5.5-4.5 10-10 10s-10-4.5-10-10c0-22.3 18.1-40.4 40.4-40.4 22.3 0 40.4 18.1 40.4 40.4 0 5.5-4.5 10-10 10z"  /><path d="M389.5 597.4a19.7 23.9 0 1 0 39.4 0 19.7 23.9 0 1 0-39.4 0Z" fill="#020202" /><path d="M595.8 597.4a19.7 23.9 0 1 0 39.4 0 19.7 23.9 0 1 0-39.4 0Z" fill="#020202" /><path d="M220.382168 301.362839a32.5 62.8 7.297 1 0 64.473572 8.255824 32.5 62.8 7.297 1 0-64.473572-8.255824Z" fill="#F4BF56" /><path d="M246.9 377.9c-1.2 0-2.4-0.1-3.5-0.2-12.5-1.6-22.6-11.4-28.6-27.6-5.1-14-6.6-31.7-4.3-49.9 5.3-41.1 27.4-69.8 51.4-66.8 12.5 1.6 22.6 11.4 28.6 27.6 5.1 14 6.6 31.7 4.3 49.9s-8.3 35-16.8 47.2c-8.9 12.9-19.8 19.8-31.1 19.8z m11.6-124.8c-4.4 0-9.9 4.1-14.7 11.1-6.6 9.5-11.5 23.5-13.4 38.4-1.9 14.9-0.7 29.6 3.3 40.5 3.1 8.6 7.7 14.1 12.3 14.7 4.6 0.6 10.4-3.6 15.6-11.1 6.6-9.5 11.5-23.5 13.4-38.4 1.9-14.9 0.7-29.6-3.3-40.5-3.1-8.6-7.7-14.1-12.3-14.7h-0.9z"  /><path d="M804.266289 301.270207a62.8 32.5 82.703 1 0-64.473571 8.255824 62.8 32.5 82.703 1 0 64.473571-8.255824Z" fill="#F4BF56" /><path d="M777.8 377.9c-22.6 0-42.8-27.9-47.8-67-5.3-41.1 8.8-74.5 32.9-77.6 12.5-1.6 24.8 5.3 34.6 19.5 8.5 12.3 14.4 29 16.8 47.2 5.3 41.1-8.8 74.5-32.9 77.6-1.3 0.2-2.5 0.3-3.6 0.3z m-28.1-69.6c1.9 14.9 6.8 28.8 13.4 38.4 5.2 7.5 11 11.7 15.6 11.1 4.6-0.6 9.2-6.1 12.3-14.7 4-10.9 5.2-25.7 3.3-40.5-1.9-14.9-6.8-28.8-13.4-38.4-5.2-7.5-11-11.7-15.6-11.1-4.6 0.6-9.2 6.1-12.3 14.7-4 10.9-5.2 25.7-3.3 40.5z"  /></svg>