<?xml version="1.0" standalone="no"?><!DOCTYPE svg PUBLIC "-//W3C//DTD SVG 1.1//EN" "http://www.w3.org/Graphics/SVG/1.1/DTD/svg11.dtd"><svg class="icon" width="200px" height="200.00px" viewBox="0 0 1024 1024" version="1.1" xmlns="http://www.w3.org/2000/svg"><path d="M375.6 188.1c-50.3-11.7-96.3-42.1-126.5-88.9-16.2-25.1-26.1-52.4-30.4-80.1C197.4 77.7 202.6 145 239 201.4c11.9 18.5 26.3 34.3 42.4 47.5l94.2-60.8z" fill="#542E18" /><path d="M281.4 259.3c-2.3 0-4.7-0.8-6.6-2.4-17.4-14.3-32.4-31.1-44.5-49.9-18.7-28.9-29.9-60.8-33.3-94.9-3.3-32.4 0.9-65.7 12-96.5 1.6-4.5 6-7.2 10.8-6.8 4.7 0.5 8.5 4.1 9.2 8.7 4.2 27.4 13.9 52.9 28.8 76 27.6 42.8 70.3 72.8 120.2 84.4 4.1 0.9 7.2 4.2 7.9 8.3 0.7 4.1-1.1 8.2-4.6 10.5L287 257.6c-1.7 1.1-3.7 1.7-5.6 1.7zM218.7 61.2c-2.4 16.2-2.8 32.6-1.2 48.8 3.1 30.7 13.3 59.6 30.1 85.7 9.6 14.9 21.2 28.4 34.5 40.3l68.6-44.2c-45.5-15.8-84.1-46.1-110.5-86.9-8.8-13.8-16-28.4-21.5-43.7z" fill="#231815" /><path d="M645.9 188.1c50.3-11.7 96.3-42.1 126.5-88.9 16.2-25.1 26.1-52.4 30.4-80.1 21.3 58.5 16.1 125.9-20.3 182.2-11.9 18.5-26.3 34.3-42.4 47.5l-94.2-60.7z" fill="#542E18" /><path d="M740.2 259.3c-1.9 0-3.9-0.5-5.6-1.7l-94.2-60.8c-3.5-2.3-5.3-6.4-4.6-10.5 0.7-4.1 3.8-7.4 7.9-8.3 49.9-11.6 92.5-41.6 120.2-84.4 14.9-23.1 24.6-48.7 28.8-76 0.7-4.7 4.5-8.3 9.2-8.7 4.7-0.5 9.1 2.3 10.8 6.8 11.2 30.8 15.3 64.1 12 96.5-3.5 34-14.7 66-33.3 94.9-12.1 18.8-27.1 35.6-44.5 49.9-2.1 1.5-4.4 2.3-6.7 2.3z m-69.5-67.5l68.6 44.2c13.3-11.8 24.9-25.3 34.5-40.3 16.9-26.1 27-55 30.1-85.7 1.6-16.2 1.2-32.6-1.2-48.8-5.5 15.3-12.7 29.9-21.6 43.6-26.3 40.9-64.9 71.2-110.4 87z" fill="#231815" /><path d="M51.5 448.2c29.1 15.7 61.8 25.9 96.8 28.7 131 10.7 246.1-83.3 263.8-212-29.1-15.7-61.8-25.9-96.8-28.7-131.1-10.7-246.2 83.3-263.8 212z" fill="#B5805D" /><path d="M168.5 488.1c-7 0-14-0.3-21-0.9-35.5-2.9-69.5-13-100.9-29.9-3.8-2.1-5.9-6.3-5.4-10.5 18.5-134.9 139.3-232 274.9-220.9 35.5 2.9 69.5 13 100.9 29.9 3.8 2.1 5.9 6.3 5.4 10.5-17.6 127.9-127 221.8-253.9 221.8zM62.8 442.4c27.1 13.6 56.1 21.7 86.3 24.2 122.2 9.9 231.3-75.6 251.6-195.9-27.1-13.6-56.1-21.7-86.3-24.2-122.2-10-231.3 75.6-251.6 195.9z" fill="#231815" /><path d="M51.5 458.5c-2.2 0-4.3-0.7-6.2-2-4.6-3.4-5.6-9.9-2.2-14.5 1.1-1.5 27.8-37 86.6-78 34.3-23.9 72.7-44.8 113.9-62.1 51.4-21.5 107.5-37.4 166.8-47.2 5.6-0.9 11 2.9 11.9 8.5 0.9 5.7-2.9 11-8.5 11.9-57.4 9.5-111.7 24.9-161.5 45.6-39.8 16.6-76.7 36.7-109.8 59.6-45.1 31.3-73.8 62.1-82.7 74-2 2.8-5.2 4.2-8.3 4.2z" fill="#231815" /><path d="M970.1 448.2c-29.1 15.7-61.8 25.9-96.8 28.7-131 10.7-246.1-83.3-263.8-212 29.1-15.7 61.8-25.9 96.8-28.7 131-10.7 246.1 83.3 263.8 212z" fill="#B5805D" /><path d="M853 488.1c-126.9 0-236.4-93.9-253.9-221.8-0.6-4.3 1.5-8.5 5.4-10.5 31.5-17 65.4-27.1 100.9-29.9 135.6-11.1 256.4 86 274.9 220.9 0.6 4.3-1.5 8.5-5.4 10.5-31.5 17-65.4 27.1-100.9 29.9-7 0.6-14 0.9-21 0.9zM620.8 270.7C641 390.9 750.1 476.5 872.4 466.5c30.2-2.5 59.2-10.6 86.3-24.2C938.5 322 829.4 236.5 707.1 246.4c-30.2 2.6-59.2 10.7-86.3 24.3z" fill="#231815" /><path d="M970.1 458.5c-3.2 0-6.3-1.4-8.3-4.2-8.9-11.9-37.6-42.7-82.7-74-33.1-23-70.1-43-109.8-59.6-49.7-20.7-104.1-36.1-161.5-45.6-5.7-0.9-9.5-6.3-8.5-11.9 0.9-5.7 6.3-9.5 11.9-8.5 59.2 9.8 115.4 25.7 166.8 47.2 41.2 17.2 79.5 38.1 113.9 62.1 58.8 41 85.5 76.6 86.6 78 3.4 4.6 2.4 11.1-2.2 14.5-1.9 1.4-4.1 2-6.2 2z" fill="#231815" /><path d="M801.6 520.1v-124c0-159.9-130.9-248.3-290.8-248.3S220 236.1 220 396.1v124c-45.4 51.1-73.3 118.1-73.3 191.4 0 159 130.1 289 289 289h150.2c159 0 289-130.1 289-289 0-73.3-27.9-140.3-73.3-191.4z" fill="#FFFFFF" /><path d="M585.9 1010.9H435.6c-79.7 0-154.8-31.2-211.5-87.9-56.7-56.7-87.9-131.8-87.9-211.5 0-71.5 26-140.7 73.3-195.3V396.1c0-79.1 30.9-145.6 89.3-192.2 53.7-42.8 128.9-66.4 211.9-66.4s158.2 23.6 211.9 66.4c58.4 46.6 89.3 113.1 89.3 192.2v120.1c47.3 54.6 73.3 123.8 73.3 195.3 0 79.7-31.2 154.8-87.9 211.5-56.7 56.7-131.8 87.9-211.4 87.9z m-75.1-852.7c-78.3 0-148.9 22-198.9 61.9-53.3 42.6-81.5 103.4-81.5 176V524l-2.6 2.9C182.1 578.3 157 643.8 157 711.5c0 74.1 29.1 144 81.9 196.8 52.8 52.8 122.7 81.9 196.8 81.9h150.2c74.1 0 144-29.1 196.8-81.9 52.8-52.8 81.9-122.7 81.9-196.8 0-67.7-25.1-133.2-70.7-184.5l-2.6-2.9v-128c0-72.6-28.2-133.4-81.5-176-50.1-39.9-120.8-61.9-199-61.9z" fill="#231815" /><path d="M236.6 822.1a274.2 178.5 0 1 0 548.4 0 274.2 178.5 0 1 0-548.4 0Z" fill="#B5805D" /><path d="M510.8 1010.9c-75.2 0-146.1-19.2-199.6-54-54.8-35.7-85-83.6-85-134.9s30.2-99.2 85-134.9c53.5-34.8 124.3-54 199.6-54 75.2 0 146.1 19.2 199.6 54 54.8 35.7 85 83.6 85 134.9 0 51.3-30.2 99.2-85 134.9-53.5 34.9-124.4 54-199.6 54z m0-356.9c-71.3 0-138.1 18-188.3 50.6-48.8 31.7-75.6 73.5-75.6 117.5s26.9 85.8 75.6 117.5c50.1 32.6 117 50.6 188.3 50.6s138.1-18 188.3-50.6c48.8-31.7 75.6-73.5 75.6-117.5s-26.9-85.8-75.6-117.5C648.9 672 582 654 510.8 654z" fill="#231815" /><path d="M345.8 803.2m-42.6 0a42.6 42.6 0 1 0 85.2 0 42.6 42.6 0 1 0-85.2 0Z" fill="#FFFFFF" /><path d="M345.8 856.1c-29.2 0-52.9-23.7-52.9-52.9s23.7-52.9 52.9-52.9 52.9 23.7 52.9 52.9c0.1 29.2-23.7 52.9-52.9 52.9z m0-85.1c-17.7 0-32.2 14.4-32.2 32.2 0 17.7 14.4 32.2 32.2 32.2 17.7 0 32.2-14.4 32.2-32.2 0-17.7-14.4-32.2-32.2-32.2z" fill="#231815" /><path d="M675.7 803.2m-42.6 0a42.6 42.6 0 1 0 85.2 0 42.6 42.6 0 1 0-85.2 0Z" fill="#FFFFFF" /><path d="M675.7 856.1c-29.2 0-52.9-23.7-52.9-52.9s23.7-52.9 52.9-52.9 52.9 23.7 52.9 52.9-23.7 52.9-52.9 52.9z m0-85.1c-17.7 0-32.2 14.4-32.2 32.2 0 17.7 14.4 32.2 32.2 32.2s32.2-14.4 32.2-32.2c-0.1-17.7-14.5-32.2-32.2-32.2z" fill="#231815" /><path d="M364.8 481m-52 0a52 52 0 1 0 104 0 52 52 0 1 0-104 0Z" fill="#231815" /><path d="M354.1 468.5m-25.2 0a25.2 25.2 0 1 0 50.4 0 25.2 25.2 0 1 0-50.4 0Z" fill="#FFFFFF" /><path d="M656.8 481m-52 0a52 52 0 1 0 104 0 52 52 0 1 0-104 0Z" fill="#231815" /><path d="M646.1 468.5m-25.2 0a25.2 25.2 0 1 0 50.4 0 25.2 25.2 0 1 0-50.4 0Z" fill="#FFFFFF" /></svg>