<?xml version="1.0" standalone="no"?><!DOCTYPE svg PUBLIC "-//W3C//DTD SVG 1.1//EN" "http://www.w3.org/Graphics/SVG/1.1/DTD/svg11.dtd"><svg class="icon" width="200px" height="200.00px" viewBox="0 0 1024 1024" version="1.1" xmlns="http://www.w3.org/2000/svg"><path d="M169.8 332.8c6.9 43.9 46.8 79.2 74.3 106.3 52.1-45.2 123.9-105.4 99.4-191-12.3-42.8-84-104-111.6-131.2-52.1 45.3-77.2 119.3-62.1 215.9z" fill="#542E18" /><path d="M244.2 449.2c-2.5 0-5.1-1-7-2.9-2.5-2.4-5-4.9-7.7-7.5-28-27.2-62.7-61.1-69.5-104.4-7.6-48.5-5.6-92.8 6.1-131.6 11.3-37.6 31.3-69 59.3-93.3 3.9-3.4 9.9-3.2 13.6 0.4 4.6 4.5 10.3 9.9 17 16.2 34.3 32.3 86.2 81.1 97.1 119.3 25.9 90.2-46.7 153-99.6 198.9l-2.8 2.4c-1.9 1.6-4.2 2.5-6.5 2.5z m-12.4-318.5c-21.6 20.9-37.3 47-46.6 77.8-10.8 35.9-12.7 77.2-5.5 122.7 5.8 36.7 37.9 68 63.7 93.2 0.4 0.4 0.8 0.7 1.1 1.1 50.8-44.1 111.1-98.8 89.4-174.7-9.4-32.9-60.9-81.3-91.6-110.2-3.8-3.5-7.3-6.8-10.5-9.9z" fill="#231815" /><path d="M852.9 332.8c-6.9 43.9-46.8 79.2-74.3 106.3-52.1-45.2-123.9-105.4-99.4-191 12.3-42.8 84-104 111.6-131.2 52.1 45.3 77.3 119.3 62.1 215.9z" fill="#542E18" /><path d="M778.6 449.2c-2.3 0-4.7-0.8-6.5-2.4l-2.8-2.4c-53-45.9-125.5-108.7-99.6-198.9 11-38.2 62.8-87 97.1-119.3 6.7-6.3 12.5-11.7 17-16.2 3.7-3.7 9.6-3.9 13.6-0.4 28 24.3 48 55.7 59.3 93.3 11.7 38.8 13.8 83.1 6.1 131.6-6.8 43.3-41.6 77.2-69.5 104.4-2.6 2.6-5.2 5.1-7.7 7.5-1.9 1.8-4.5 2.8-7 2.8zM791 130.7c-3.2 3-6.7 6.4-10.5 10-30.7 28.9-82.2 77.3-91.6 110.2-21.7 75.8 38.5 130.6 89.4 174.7 0.4-0.4 0.8-0.7 1.1-1.1 25.8-25.2 58-56.5 63.7-93.2 7.2-45.5 5.3-86.8-5.5-122.7-9.4-30.9-25-57-46.6-77.9z" fill="#231815" /><path d="M896.1 561.7c0 202-172.2 328.5-384.7 328.5S126.7 763.7 126.7 561.7s172.2-353.4 384.7-353.4 384.7 151.4 384.7 353.4z" fill="#F4BF56" /><path d="M511.4 900.3c-107.9 0-206.7-32.2-278.3-90.8-36.7-30-65.3-65.9-85.1-106.9-20.7-42.9-31.2-90.3-31.2-140.9 0-99.8 41.2-192.1 116-259.8 73.7-66.8 172.6-103.5 278.7-103.5s205.1 36.8 278.7 103.5c74.8 67.8 116 160 116 259.8 0 50.6-10.5 98-31.2 140.9-19.8 40.9-48.4 76.9-85.1 106.9-71.8 58.5-170.7 90.8-278.5 90.8z m0-681.9c-101.1 0-195.3 34.9-265.3 98.3-70.5 63.9-109.4 150.9-109.4 245 0 47.6 9.8 92.1 29.2 132.2 18.5 38.3 45.3 71.9 79.8 100.1 68.1 55.6 162.4 86.3 265.7 86.3S709 849.6 777.1 794c34.4-28.1 61.3-61.8 79.8-100.1 19.4-40.1 29.2-84.6 29.2-132.2 0-94.1-38.8-181.1-109.4-245-70-63.4-164.2-98.3-265.3-98.3z"  /><path d="M367.7 426m-45.5 0a45.5 45.5 0 1 0 91 0 45.5 45.5 0 1 0-91 0Z" fill="#231815" /><path d="M328.6 414.9a17.5 16.7 0 1 0 35 0 17.5 16.7 0 1 0-35 0Z" fill="#FFFFFF" /><path d="M655 426m-45.5 0a45.5 45.5 0 1 0 91 0 45.5 45.5 0 1 0-91 0Z" fill="#231815" /><path d="M615.9 414.9a17.5 16.7 0 1 0 35 0 17.5 16.7 0 1 0-35 0Z" fill="#FFFFFF" /><path d="M455.6 637.9a55.8 43.9 0 1 0 111.6 0 55.8 43.9 0 1 0-111.6 0Z"  /><path d="M562.9 805c-15.8 0-30.6-4.6-41.8-13.1-12.7-9.6-19.7-23.5-19.7-39.1 0-5.5 4.5-10 10-10s10 4.5 10 10c0 21.1 20.9 32.1 41.5 32.1 21.2 0 38.4-17.2 38.4-38.4 0-5.5 4.5-10 10-10s10 4.5 10 10c0 32.3-26.2 58.5-58.4 58.5z"  /><path d="M459.9 805c-32.2 0-58.4-26.2-58.4-58.4 0-5.5 4.5-10 10-10s10 4.5 10 10c0 21.2 17.2 38.4 38.4 38.4 20.6 0 41.5-11 41.5-32.1v-91.7c0-5.5 4.5-10 10-10s10 4.5 10 10v91.7c0 15.6-7 29.5-19.7 39.1-11.2 8.3-26 13-41.8 13z"  /><path d="M10.9 661.1c-1.8 0-3.6-1-4.5-2.7-1.3-2.5-0.3-5.5 2.2-6.7 57.5-29.5 124.8-41.5 171.2-46.5 50.2-5.4 87.4-3.8 87.8-3.8 2.8 0.1 4.9 2.5 4.8 5.2s-2.5 4.9-5.2 4.8c-1.5-0.1-146.5-5.9-253.9 49.2-0.9 0.3-1.6 0.5-2.4 0.5zM10.9 768.7c-1.3 0-2.7-0.5-3.6-1.6-1.9-2-1.8-5.2 0.2-7.1 57.6-54.3 125.3-76.7 171.9-85.8 50.5-9.9 86.9-7.1 88.4-6.9 2.8 0.2 4.8 2.6 4.6 5.4-0.2 2.8-2.6 4.8-5.4 4.6-0.5 0-36.9-2.9-86 6.8-45.2 8.9-110.8 30.6-166.7 83.2-0.9 0.9-2.2 1.4-3.4 1.4zM81.2 829.1c-1.1 0-2.2-0.4-3.2-1.1-2.1-1.8-2.4-4.9-0.7-7 42.1-51.3 91.5-72.5 125.6-81.1 37-9.4 63.8-6.7 64.9-6.6 2.7 0.3 4.7 2.8 4.4 5.5-0.3 2.7-2.8 4.7-5.5 4.4-0.4 0-26.5-2.6-61.8 6.4-32.5 8.3-79.7 28.6-119.9 77.7-0.9 1.1-2.4 1.8-3.8 1.8z"  /><path d="M1011.9 661.1c-0.8 0-1.5-0.2-2.3-0.6-107.4-55.1-252.5-49.2-253.9-49.2h-0.2c-2.7 0-4.9-2.1-5-4.8-0.1-2.8 2-5.1 4.8-5.2 0.4 0 37.6-1.6 87.8 3.8 46.4 5 113.7 17.1 171.2 46.5 2.5 1.3 3.4 4.3 2.2 6.7-1.1 1.8-2.8 2.8-4.6 2.8zM1011.9 768.7c-1.2 0-2.5-0.5-3.4-1.4-55.9-52.6-121.5-74.3-166.7-83.2-49.2-9.7-85.6-6.9-86-6.8-2.8 0.2-5.2-1.8-5.4-4.6-0.2-2.8 1.8-5.2 4.6-5.4 1.5-0.1 37.9-3 88.4 6.9 46.6 9.2 114.3 31.5 171.9 85.8 2 1.9 2.1 5.1 0.2 7.1-1 1.1-2.3 1.6-3.6 1.6zM941.6 829.1c-1.4 0-2.9-0.6-3.9-1.8-40.2-49.1-87.4-69.3-119.9-77.7-35.4-9.1-61.5-6.5-61.8-6.4-2.8 0.3-5.2-1.7-5.5-4.4-0.3-2.7 1.7-5.2 4.4-5.5 1.1-0.1 27.9-2.9 64.9 6.6 34.1 8.7 83.5 29.8 125.6 81.1 1.8 2.1 1.4 5.3-0.7 7-0.9 0.7-2 1.1-3.1 1.1z"  /></svg>