<?xml version="1.0" standalone="no"?><!DOCTYPE svg PUBLIC "-//W3C//DTD SVG 1.1//EN" "http://www.w3.org/Graphics/SVG/1.1/DTD/svg11.dtd"><svg class="icon" width="200px" height="200.00px" viewBox="0 0 1024 1024" version="1.1" xmlns="http://www.w3.org/2000/svg"><path d="M254.7 969.1c0-67 54.3-121.4 121.4-121.4 4.5 0 8.9 0.3 13.2 0.8-16-48.4-61.5-83.3-115.2-83.3-67 0-121.4 54.3-121.4 121.4 0 62.6 47.3 114 108.2 120.6-4-12-6.2-24.8-6.2-38.1z" fill="#F489CB" /><path d="M260.8 1017.1c-0.4 0-0.7 0-1.1-0.1-66.7-7.2-117.1-63.4-117.1-130.6C142.6 814 201.5 755 274 755c56.8 0 106.9 36.2 124.7 90.2 1.1 3.2 0.4 6.8-1.7 9.4-2.1 2.6-5.5 4-8.9 3.7-4.3-0.5-8.3-0.7-12.2-0.7-61.4 0-111.4 50-111.4 111.4 0 11.8 1.9 23.5 5.7 35 1.1 3.2 0.4 6.8-1.7 9.4-1.8 2.4-4.7 3.7-7.7 3.7z m13.3-242c-61.4 0-111.4 50-111.4 111.4 0 51.9 35.4 96 84.5 108.1-1.7-8.4-2.5-17-2.5-25.6 0-71.8 57.9-130.4 129.5-131.4-18.5-37.9-57.1-62.5-100.1-62.5z" fill="#231815" /><path d="M768 969.1c0-67-54.3-121.4-121.4-121.4-4.5 0-8.9 0.3-13.2 0.8 16-48.4 61.5-83.3 115.2-83.3 67 0 121.4 54.3 121.4 121.4 0 62.6-47.3 114-108.2 120.6 4-12 6.2-24.8 6.2-38.1z" fill="#F489CB" /><path d="M761.8 1017.1c-3 0-5.9-1.4-7.8-3.7-2.1-2.6-2.8-6.2-1.7-9.4 3.8-11.4 5.7-23.2 5.7-35 0-61.4-50-111.4-111.4-111.4-3.9 0-7.8 0.2-12.2 0.7-3.4 0.4-6.7-1-8.9-3.7-2.1-2.6-2.8-6.2-1.7-9.4 17.8-53.9 67.9-90.2 124.7-90.2 72.4 0 131.4 58.9 131.4 131.4 0 67.2-50.3 123.3-117.1 130.6-0.3 0.1-0.6 0.1-1 0.1zM648.5 837.7c71.6 1 129.5 59.6 129.5 131.4 0 8.6-0.9 17.1-2.5 25.6 49.1-12.1 84.5-56.2 84.5-108.1 0-61.4-50-111.4-111.4-111.4-43.1-0.1-81.6 24.5-100.1 62.5z" fill="#231815" /><path d="M153.1 28.9c66.2 88.9 168.2 135.5 142.2 157.8-33.6 29-152.3 35.6-212.1-12.9-34.5-28-56.8-67.4-37.6-107.4s81-73.1 107.5-37.5z" fill="#F4BF56" /><path d="M204.3 219.4c-1.8 0-3.6 0-5.4-0.1-49.1-0.9-93.5-14.7-122-37.8-19.8-16-34.3-34.4-41.9-53.2-9.1-22.3-8.5-45.2 1.6-66.3C51.2 31.9 85.3 6.9 116 4c18.7-1.8 34.7 4.9 45.1 18.9 30.2 40.6 67.7 71.8 97.8 97 31.4 26.2 50.4 42 50.5 58.5 0 4.2-1.3 10.5-7.6 15.9-18.1 15.6-55.1 25.1-97.5 25.1zM122 23.7c-1.3 0-2.7 0.1-4 0.2-23.5 2.2-51.8 23.3-63.2 46.9-21 43.5 17.4 81.1 34.8 95.3 25 20.3 65 32.4 109.7 33.3 38.7 0.7 74.6-7.4 89.5-20.2 0.4-0.3 0.6-0.6 0.7-0.7 0-0.6-0.6-4.3-9.9-13.8-8-8.2-19.8-18-33.4-29.4-29.3-24.5-69.5-57.9-101-100.4-5.6-7.4-13.4-11.2-23.2-11.2z" fill="#231815" /><path d="M869.6 28.9c-66.2 88.9-168.2 135.5-142.2 157.8 33.6 29 152.3 35.6 212.1-12.9 34.5-28 56.8-67.4 37.6-107.4-19.4-40-81-73.1-107.5-37.5z" fill="#F4BF56" /><path d="M818.3 219.4c-42.4 0-79.4-9.5-97.5-25.1-6.3-5.5-7.6-11.7-7.6-15.9 0.1-16.4 19.1-32.3 50.5-58.5 30.1-25.1 67.6-56.4 97.8-97C872 8.9 888 2.2 906.7 4c30.7 2.9 64.8 27.9 79.3 58.1 10.2 21.1 10.7 44 1.6 66.3-7.7 18.8-22.1 37.1-41.9 53.2-28.4 23.1-72.9 36.8-122 37.8h-5.4z m-85.1-40.9l0.7 0.7c14.9 12.8 50.8 20.9 89.5 20.2 44.7-0.8 84.7-13 109.7-33.3 17.5-14.2 55.8-51.8 34.8-95.3-11.4-23.6-39.7-44.6-63.2-46.9-11.8-1.1-20.9 2.6-27.2 10.9-31.6 42.5-71.7 75.9-101 100.4-13.6 11.4-25.4 21.2-33.4 29.4-9.3 9.6-9.9 13.3-9.9 13.9z" fill="#231815" /><path d="M860.9 450.5V384c0-192.3-157.3-320.5-349.6-320.5S161.7 191.7 161.7 384v66.5c-17.3 32.6-21.8 121.8-21.8 194.8 0 178.3 102.1 295 280.4 295h182.1c178.3 0 280.4-116.7 280.4-295 0-73 1.7-171.8-21.9-194.8z" fill="#FFFFFF" /><path d="M602.4 950.3H420.3c-89.3 0-163.4-29-214.4-83.8-49.7-53.5-76-130-76-221.1 0-57.1 2.9-157.6 21.8-197.2V384c0-48.2 9.6-93.7 28.5-135.3 18.1-39.8 44.2-74.9 77.6-104.5 66-58.4 156.1-90.6 253.5-90.6s187.5 32.2 253.5 90.6c33.4 29.6 59.5 64.7 77.6 104.5 18.9 41.6 28.5 87.1 28.5 135.3v62.7c20.4 25.9 22 96 21.9 184.4v14.2c0 91.1-26.3 167.6-76 221.1-51 54.9-125.2 83.9-214.4 83.9zM511.3 73.5c-92.6 0-177.9 30.4-240.3 85.6-31.3 27.7-55.7 60.6-72.6 97.8-17.7 39-26.7 81.7-26.7 127.1v66.5c0 1.6-0.4 3.2-1.2 4.7-13.1 24.8-20.7 94.1-20.7 190.1 0 86 24.4 157.8 70.7 207.5 47.1 50.7 116.1 77.4 199.7 77.4h182.1c83.6 0 152.6-26.8 199.7-77.4 46.2-49.8 70.7-121.5 70.7-207.5V631c0.1-35.1 0.1-74.9-2.6-108-3.6-44.4-10.8-60.1-16.3-65.3-1.9-1.9-3-4.5-3-7.2V384c0-45.3-9-88.1-26.7-127.1-16.9-37.2-41.3-70.1-72.6-97.8-62.3-55.2-147.6-85.6-240.2-85.6z" fill="#231815" /><path d="M374.9 378.7m-50.3 0a50.3 50.3 0 1 0 100.6 0 50.3 50.3 0 1 0-100.6 0Z" fill="#231815" /><path d="M363 363.3m-22.8 0a22.8 22.8 0 1 0 45.6 0 22.8 22.8 0 1 0-45.6 0Z" fill="#FFFFFF" /><path d="M385.9 404.2m-10.9 0a10.9 10.9 0 1 0 21.8 0 10.9 10.9 0 1 0-21.8 0Z" fill="#FFFFFF" /><path d="M647.7 378.7m-50.3 0a50.3 50.3 0 1 0 100.6 0 50.3 50.3 0 1 0-100.6 0Z" fill="#231815" /><path d="M635.9 363.3m-22.8 0a22.8 22.8 0 1 0 45.6 0 22.8 22.8 0 1 0-45.6 0Z" fill="#FFFFFF" /><path d="M658.7 404.2m-10.9 0a10.9 10.9 0 1 0 21.8 0 10.9 10.9 0 1 0-21.8 0Z" fill="#FFFFFF" /><path d="M809.2 871.6H213.4c-86.8 0-157.8-71-157.8-157.8 0-86.8 71-157.8 157.8-157.8h595.8C896 556 967 627 967 713.8c0 86.8-71 157.8-157.8 157.8z" fill="#F4BF56" /><path d="M809.2 881.6H213.4c-44.6 0-86.7-17.5-118.5-49.3-31.8-31.8-49.3-73.9-49.3-118.5S63.1 627 94.9 595.3c31.8-31.8 73.9-49.3 118.5-49.3h595.8c44.6 0 86.7 17.5 118.5 49.3C959.5 627 977 669.1 977 713.8s-17.5 86.7-49.3 118.5c-31.7 31.8-73.8 49.3-118.5 49.3zM213.4 566c-39.3 0-76.4 15.4-104.4 43.4s-43.4 65.1-43.4 104.4S81 790.1 109 818.1s65.1 43.4 104.4 43.4h595.8c39.3 0 76.4-15.4 104.4-43.4S957 753 957 713.7s-15.4-76.4-43.4-104.4-65.1-43.4-104.4-43.4H213.4z" fill="#231815" /><path d="M229.3 772.3c-4.5 0-8.7-3.1-9.7-7.7-0.3-1.3-7.2-31.5-9.2-65-2.8-48.1 6.1-78.3 26.5-89.8 14-7.9 32.1-6.4 54 4.3 22.4 11 50 32.3 82 63.5 4 3.9 4 10.2 0.2 14.1-3.9 4-10.2 4-14.1 0.2-72.5-70.5-101.4-70.8-112.2-64.7-12.9 7.3-18.7 32.6-16.4 71.2 1.9 31.9 8.7 61.4 8.7 61.7 1.2 5.4-2.1 10.8-7.5 12-0.8 0.1-1.6 0.2-2.3 0.2z" fill="#231815" /><path d="M258.40037 707.984867a46.3 24.1 74.133 1 0 46.363529-13.178133 46.3 24.1 74.133 1 0-46.363529 13.178133Z" fill="#231815" /><path d="M793.4 772.3c-0.7 0-1.5-0.1-2.3-0.3-5.4-1.2-8.7-6.6-7.5-12 0.1-0.3 6.9-30 8.7-61.9 2.2-38.6-3.6-63.8-16.4-71-10.8-6.1-39.7-5.8-112.2 64.7-4 3.8-10.3 3.8-14.1-0.2-3.8-4-3.8-10.3 0.2-14.1 32-31.1 59.6-52.5 82-63.5 21.9-10.7 40.1-12.2 54-4.3 20.4 11.5 29.4 41.8 26.5 89.8-2 33.6-8.9 63.8-9.2 65-1 4.7-5.1 7.8-9.7 7.8z" fill="#231815" /><path d="M764.265264 708.078767a24.1 46.3 15.867 1 0-46.363529-13.178133 24.1 46.3 15.867 1 0 46.363529 13.178133Z" fill="#231815" /></svg>