<?xml version="1.0" standalone="no"?><!DOCTYPE svg PUBLIC "-//W3C//DTD SVG 1.1//EN" "http://www.w3.org/Graphics/SVG/1.1/DTD/svg11.dtd"><svg class="icon" width="200px" height="200.00px" viewBox="0 0 1024 1024" version="1.1" xmlns="http://www.w3.org/2000/svg"><path d="M313.9 373.2c39.8 79.3 10.6 170.3-65.1 203.1-75.7 32.8-169.3-4.8-209.1-84.2S29.1 321.8 104.8 289s169.3 4.8 209.1 84.2z" fill="#F489CB" /><path d="M190.9 598c-21.2 0-42.8-4.2-63.8-12.6-41.7-16.8-75.9-48.3-96.2-88.9-21.1-42.2-24.6-90.2-9.4-131.9 13.9-38.4 42.1-68.4 79.4-84.6 39-16.9 83.6-17 125.6-0.1 41.7 16.8 75.9 48.3 96.2 88.9 21.1 42.2 24.6 90.2 9.4 131.9-13.9 38.4-42.1 68.4-79.4 84.6-19.6 8.4-40.5 12.7-61.8 12.7z m-28.3-311.1c-18.3 0-36.6 3.5-53.9 11C76.5 312 52 338 40 371.3c-13.3 36.6-10.2 79.1 8.5 116.4C85.9 562.3 174 598 244.9 567.3c32.3-14 56.7-40 68.8-73.3 13.3-36.6 10.2-79.1-8.5-116.4-28.4-56.5-85.7-90.7-142.6-90.7z" fill="#231815" /><path d="M290.3 411.4c24.4 48.7 4.9 105.2-43.5 126.2s-107.5-1.4-131.9-50.1-4.9-105.2 43.5-126.2 107.5 1.4 131.9 50.1z" fill="#FFFFFF" /><path d="M208.6 555.3c-41.6 0-82.7-23.7-102.5-63.4-13.3-26.5-15.2-55.8-5.5-82.6 9.3-25.7 28.5-46 53.9-57 53.1-23 117.9 1.5 144.6 54.7 13.3 26.5 15.2 55.8 5.5 82.6-9.3 25.7-28.5 46-53.9 57-13.6 5.9-27.9 8.7-42.1 8.7z m-11.9-192.1c-11.7 0-23.4 2.3-34.4 7.1-20.4 8.9-35.8 25.1-43.3 45.7-7.9 21.7-6.2 45.5 4.6 67.1 16.5 32.9 50.5 52.6 84.8 52.6 11.7 0 23.4-2.3 34.4-7.1 20.4-8.9 35.8-25.1 43.3-45.7 7.9-21.7 6.2-45.5-4.6-67.1-16.5-32.9-50.5-52.6-84.8-52.6z" fill="#231815" /><path d="M708.8 373.2c-39.8 79.3-10.6 170.3 65.1 203.1 75.7 32.8 169.3-4.8 209.1-84.2 39.8-79.3 10.6-170.3-65.1-203.1s-169.4 4.8-209.1 84.2z" fill="#F489CB" /><path d="M831.8 598c-21.3 0-42.3-4.2-61.8-12.7-37.3-16.2-65.4-46.2-79.4-84.6-15.1-41.7-11.7-89.8 9.4-131.9 20.3-40.5 54.4-72.1 96.2-88.9 41.9-16.9 86.5-16.9 125.6 0.1 37.3 16.2 65.4 46.2 79.4 84.6 15.1 41.7 11.7 89.8-9.4 131.9-20.3 40.5-54.4 72.1-96.2 88.9-21 8.4-42.6 12.6-63.8 12.6zM860 286.9c-56.9 0-114.2 34.2-142.5 90.6-18.7 37.4-21.8 79.8-8.5 116.4 12.1 33.3 36.5 59.3 68.8 73.3 17.3 7.5 35.6 11 53.9 11 56.9 0 114.2-34.2 142.5-90.6 18.7-37.4 21.8-79.8 8.5-116.4-12.1-33.2-36.5-59.2-68.8-73.2-17.2-7.5-35.5-11.1-53.9-11.1z" fill="#231815" /><path d="M732.4 411.4c-24.4 48.7-4.9 105.2 43.5 126.2s107.5-1.4 131.9-50.1c24.4-48.7 4.9-105.2-43.5-126.2s-107.5 1.4-131.9 50.1z" fill="#FFFFFF" /><path d="M814.1 555.3c-14.2 0-28.5-2.8-42-8.6-25.4-11-44.6-31.3-53.9-57-9.7-26.8-7.8-56.1 5.5-82.6 26.7-53.2 91.5-77.7 144.6-54.7 25.4 11 44.6 31.3 53.9 57 9.7 26.8 7.8 56.1-5.5 82.6-19.9 39.5-61 63.3-102.6 63.3zM826 363.2c-34.3 0-68.3 19.7-84.8 52.6-10.8 21.6-12.5 45.5-4.6 67.1 7.5 20.6 22.9 36.8 43.3 45.7 43.7 18.9 97.2-1.5 119.2-45.5 10.8-21.6 12.5-45.5 4.6-67.1-7.5-20.6-22.9-36.8-43.3-45.7-11.1-4.8-22.8-7.1-34.4-7.1z" fill="#231815" /><path d="M796.9 386c2.3-12.1 3.6-24.7 3.6-37.5 0-104.1-80.1-188.5-178.8-188.5-41.7 0-80 1.9-110.4 27.1C480.9 161.9 442.7 160 401 160c-98.8 0-178.8 84.4-178.8 188.5 0 12.9 1.2 25.4 3.6 37.5-28.9 47.1-45.5 75.4-45.5 133.9 0 175.2 148.2 343.7 331.1 343.7 182.9 0 331.1-168.5 331.1-343.7 0-58.5-16.7-86.8-45.6-133.9z" fill="#542E18" /><path d="M511.3 873.4c-45.7 0-90.5-10.1-133-30-40.2-18.8-76.6-45.5-108.3-79.3-63.3-67.6-99.6-156.7-99.6-244.2 0-61.1 17.8-91.5 45-135.9-2-11.7-3.1-23.7-3.1-35.6 0-109.3 84.6-198.3 188.6-198.3 40.1 0 78.7 2 110.4 24.6 31.6-22.6 70.3-24.6 110.4-24.6 104 0 188.6 88.9 188.6 198.3 0 11.9-1 23.9-3.1 35.6 27.2 44.3 45 74.8 45 135.9 0 87.6-36.3 176.6-99.6 244.2-31.6 33.8-68 60.4-108.3 79.3-42.5 19.9-87.2 30-133 30zM401 169.8c-93.2 0-169 80.1-169 178.7 0 11.9 1.1 24 3.4 35.7 0.5 2.4 0 4.9-1.3 7C206.6 436 190 463 190 520c0 82.6 34.4 166.8 94.3 230.8 29.9 31.9 64.3 57.1 102.2 74.9 39.9 18.7 81.9 28.1 124.7 28.1 42.9 0 84.8-9.5 124.7-28.1 37.9-17.8 72.3-43 102.2-74.9 60-64.1 94.3-148.2 94.3-230.8 0-57-16.6-84-44.1-128.8-1.3-2.1-1.7-4.6-1.3-7 2.3-11.7 3.4-23.8 3.4-35.7 0-98.5-75.8-178.7-169-178.7-40.5 0-76.4 1.9-104.1 24.9-3.6 3-8.9 3-12.5 0-27.5-23-63.3-24.9-103.8-24.9z" fill="#231815" /><path d="M728.2 378.8c-37-49-107.8-59.2-157.3-22.5l-59.5 44.1-59.5-44.1c-49.5-36.7-120.3-26.5-157.3 22.5-37 49-26.8 119.2 22.7 155.9l58.3 43.2c-15.2 28.6-24.1 62.3-24.1 98.5 0 103.5 71.6 187.3 159.9 187.3s159.9-83.9 159.9-187.3c0-36.2-8.9-69.8-24.1-98.5l58.3-43.2c49.4-36.7 59.7-106.9 22.7-155.9z" fill="#FCFCFC" /><path d="M511.3 873.4c-45.6 0-88.4-20.7-120.5-58.3-31.7-37.2-49.2-86.5-49.2-138.8 0-33.4 7.4-66.2 21.4-95.5l-51.6-38.3c-26.1-19.3-43-47.7-47.7-79.9-4.6-32.1 3.5-64 23-89.7 40.3-53.5 117-64.4 170.9-24.5l53.7 39.8 53.7-39.8c53.9-40 130.6-29 170.9 24.5 19.5 25.8 27.6 57.7 23 89.7-4.6 32.2-21.6 60.6-47.7 79.9l-51.6 38.3c14 29.3 21.4 62.1 21.4 95.5 0 52.4-17.5 101.7-49.2 138.8-32 37.6-74.8 58.3-120.5 58.3zM384.6 343.9c-31.3 0-62.2 14.1-82.3 40.7-16.3 21.6-23.1 48.3-19.2 75.1 3.9 27 18.1 50.8 39.9 67l58.3 43.2c3.9 2.9 5.1 8.2 2.8 12.5-15 28.3-22.9 60.8-22.9 93.9 0 97.9 67.3 177.5 150.1 177.5s150.1-79.6 150.1-177.5c0-33.1-7.9-65.6-22.9-93.9-2.3-4.3-1.1-9.6 2.8-12.5l58.3-43.2c21.9-16.2 36.1-40 39.9-67 3.9-26.9-3-53.5-19.2-75.1-33.9-44.9-98.3-54.1-143.6-20.5l-59.5 44.1a9.75 9.75 0 0 1-11.7 0l-59.5-44c-18.4-13.7-40-20.3-61.4-20.3z" fill="#231815" /><path d="M398.8 470.8m-41 0a41 41 0 1 0 82 0 41 41 0 1 0-82 0Z" fill="#231815" /><path d="M389.1 465.3m-18.6 0a18.6 18.6 0 1 0 37.2 0 18.6 18.6 0 1 0-37.2 0Z" fill="#FFFFFF" /><path d="M407.7 492m-8.9 0a8.9 8.9 0 1 0 17.8 0 8.9 8.9 0 1 0-17.8 0Z" fill="#FFFFFF" /><path d="M623.9 470.8m-41 0a41 41 0 1 0 82 0 41 41 0 1 0-82 0Z" fill="#231815" /><path d="M633.6 465.3m-18.6 0a18.6 18.6 0 1 0 37.2 0 18.6 18.6 0 1 0-37.2 0Z" fill="#FFFFFF" /><path d="M615 492m-8.9 0a8.9 8.9 0 1 0 17.8 0 8.9 8.9 0 1 0-17.8 0Z" fill="#FFFFFF" /><path d="M581 621.9c0 31.1-31.2 69.5-69.6 69.5s-69.6-38.4-69.6-69.5 31.2-56.3 69.6-56.3 69.6 25.2 69.6 56.3z"  /><path d="M466.6 605.3a44.7 25 0 1 0 89.4 0 44.7 25 0 1 0-89.4 0Z" fill="#FFFFFF" /><path d="M489.1 655a22.2 12.4 0 1 0 44.4 0 22.2 12.4 0 1 0-44.4 0Z" fill="#FFFFFF" /><path d="M511.3 813.8c-41.5 0-81.4-17.6-112.4-49.5-30.4-31.3-50.1-74.1-55.7-120.6-0.6-5.4 3.2-10.3 8.6-10.9 5.4-0.6 10.3 3.2 10.9 8.6 5 42.3 22.9 81.1 50.3 109.3 27.3 28.1 62.2 43.6 98.4 43.6 36.1 0 71.1-15.5 98.3-43.5 27.4-28.2 45.2-67 50.3-109.2 0.6-5.4 5.5-9.2 10.9-8.6 5.4 0.6 9.2 5.5 8.6 10.9-5.5 46.5-25.3 89.3-55.7 120.6-31.1 31.7-71 49.3-112.5 49.3z" fill="#231815" /></svg>