<?xml version="1.0" standalone="no"?><!DOCTYPE svg PUBLIC "-//W3C//DTD SVG 1.1//EN" "http://www.w3.org/Graphics/SVG/1.1/DTD/svg11.dtd"><svg class="icon" width="200px" height="200.00px" viewBox="0 0 1024 1024" version="1.1" xmlns="http://www.w3.org/2000/svg"><path d="M295.2 143.2c58.6 58.6 84.4 201.8 23.3 262.8s-204.2 35.3-262.8-23.3S8.3 217.9 69.4 156.8s167.2-72.2 225.8-13.6z" fill="#542E18" /><path d="M216 451.1c-10 0-20.4-0.6-31-1.9-54-6.5-106.3-29.3-136.4-59.4-30-30-44.5-72.5-41-119.9C11 224.8 30.9 181 62.2 149.7c31.3-31.3 75.1-51.2 120.2-54.6 47.3-3.5 89.9 11 119.9 41 30.1 30.1 52.9 82.4 59.4 136.4 7.2 59.3-6 110.5-36.1 140.6-24.7 24.7-63.6 38-109.6 38z m-19.8-336.4c-4 0-8.1 0.2-12.3 0.5-40.3 3-79.5 20.8-107.5 48.8-28 28-45.8 67.2-48.8 107.5-3.1 41.4 9.4 78.5 35.2 104.2 27.1 27.1 74.8 47.7 124.6 53.7 53.1 6.4 98.3-4.6 124-30.4 25.7-25.7 36.8-70.9 30.4-124-6-49.8-26.6-97.5-53.7-124.6-23.1-23.3-55.4-35.7-91.9-35.7z"  /><path d="M296.2 244.7c34 34 48.9 117.1 13.5 152.5s-118.5 20.5-152.5-13.5-27.5-95.6 7.9-131 97.1-42 131.1-8z" fill="#FFFFFF" /><path d="M250.2 427.5c-6 0-12.1-0.4-18.4-1.1-32.2-3.9-63.5-17.6-81.6-35.7-18.3-18.3-27.1-44.1-25-72.8 2-27.1 14-53.5 32.9-72.4 18.9-18.9 45.2-30.9 72.4-32.9 28.7-2.1 54.6 6.7 72.8 25 18.1 18.1 31.8 49.4 35.7 81.6 4.3 35.7-3.8 66.7-22.1 85-15.3 15.2-38.9 23.3-66.7 23.3z m-11.5-195.2c-2.2 0-4.5 0.1-6.8 0.3-22.4 1.7-44.2 11.5-59.7 27.1-15.5 15.5-25.4 37.3-27.1 59.7-1.7 22.8 5.1 43.1 19.2 57.2 31.4 31.4 108.2 43.7 138.3 13.5 30.1-30.1 17.8-107-13.5-138.3-12.7-12.7-30.4-19.5-50.4-19.5z" fill="#231815" /><path d="M728.2 143.2C669.6 201.8 643.9 345 704.9 406s204.2 35.3 262.8-23.3c58.6-58.6 47.4-164.9-13.6-225.9s-167.3-72.2-225.9-13.6z" fill="#542E18" /><path d="M807.4 451.1c-46 0-84.9-13.3-109.6-38-30.1-30.1-43.2-81.3-36.1-140.6 6.5-54 29.3-106.3 59.4-136.4 30-30 72.5-44.5 119.9-41 45.1 3.4 88.9 23.3 120.2 54.6s51.2 75.1 54.6 120.2c3.5 47.3-11 89.9-41 119.9-30.1 30.1-82.4 52.9-136.4 59.4-10.6 1.3-21 1.9-31 1.9z m-72.1-300.8c-27.1 27.1-47.7 74.8-53.7 124.6-6.4 53.1 4.6 98.3 30.4 124 25.7 25.7 70.9 36.8 124 30.4 49.8-6 97.5-26.6 124.6-53.7 25.8-25.8 38.3-62.8 35.2-104.2-3-40.3-20.8-79.5-48.8-107.5-28-28-67.2-45.8-107.5-48.8-41.4-3.1-78.4 9.4-104.2 35.2z"  /><path d="M727.3 244.7c-34 34-48.9 117.1-13.5 152.5 35.4 35.4 118.5 20.5 152.5-13.5s27.5-95.6-7.9-131-97.1-42-131.1-8z" fill="#FFFFFF" /><path d="M773.3 427.5c-27.8 0-51.5-8.1-66.6-23.3-18.4-18.4-26.4-49.4-22.1-85 3.9-32.2 17.6-63.5 35.7-81.6 18.3-18.3 44.1-27.1 72.8-25 27.1 2 53.5 14 72.4 32.9 18.9 18.9 30.9 45.2 32.9 72.4 2.1 28.7-6.7 54.6-25 72.8-18.1 18.1-49.4 31.8-81.6 35.7-6.4 0.7-12.5 1.1-18.5 1.1z m-38.9-175.7C703 283.1 690.7 360 720.8 390.1c14 14 39 20 68.5 16.4 28-3.4 54.8-14.9 69.8-29.9 14.1-14.1 20.9-34.4 19.2-57.2-1.7-22.4-11.5-44.2-27.1-59.7-15.5-15.5-37.3-25.4-59.7-27.1-22.8-1.7-43.1 5.1-57.1 19.2z" fill="#231815" /><path d="M802.2 526.2c0 185.6-130 375.3-290.4 375.3S221.3 711.8 221.3 526.2s130-297 290.4-297 290.5 111.3 290.5 297z" fill="#64666D" /><path d="M511.7 911.4c-40.6 0-80.3-11.4-118.2-33.9-35.3-21-67.3-50.7-95.2-88.1-55.3-74.3-87-170.3-87-263.2 0-46.4 7.9-89.6 23.5-128.4 14.9-37.2 36.7-69.7 64.6-96.8 54.3-52.7 129.7-81.7 212.3-81.7 82.7 0 158.1 29 212.3 81.7 27.9 27.1 49.6 59.7 64.6 96.8 15.6 38.8 23.5 82.1 23.5 128.4 0 93-31.7 188.9-87 263.2-27.9 37.5-59.9 67.1-95.2 88.1-37.9 22.5-77.6 33.9-118.2 33.9z m0-672.2c-77.4 0-147.9 27-198.4 76-53.7 52.1-82 125-82 210.9 0 88.7 30.3 180.3 83.1 251.3 26.3 35.3 56.4 63.2 89.4 82.9 34.7 20.7 71 31.1 107.9 31.1s73.3-10.4 108-31.1c33-19.7 63.1-47.5 89.4-82.9 52.8-70.9 83.1-162.5 83.1-251.3 0-85.9-28.4-158.8-82-210.9-50.6-49-121-76-198.5-76z" fill="#070707" /><path d="M360.5 496.8m-31.5 0a31.5 31.5 0 1 0 63 0 31.5 31.5 0 1 0-63 0Z"  /><path d="M663 496.8m-31.5 0a31.5 31.5 0 1 0 63 0 31.5 31.5 0 1 0-63 0Z"  /><path d="M434.5 757.9a77.2 47.8 0 1 0 154.4 0 77.2 47.8 0 1 0-154.4 0Z"  /><path d="M345.8 674.8c-0.4 0-0.8 0-1.2-0.1-2.2-0.5-220.2-52-325.9-45.6-2.7 0.2-5.1-1.9-5.3-4.7-0.2-2.8 1.9-5.1 4.7-5.3 107.2-6.5 326.6 45.3 328.8 45.8 2.7 0.6 4.3 3.3 3.7 6-0.5 2.3-2.5 3.9-4.8 3.9zM18.5 749.8c-1.8 0-3.5-1-4.4-2.7-1.3-2.4-0.4-5.5 2.1-6.8 61.6-32.5 148.2-38.8 210.1-38.2 66.7 0.5 119.8 8.8 120.4 8.9 2.7 0.4 4.6 3 4.2 5.7-0.4 2.7-3 4.6-5.7 4.2-0.5-0.1-53-8.3-119-8.8C116.3 711.3 54 731.8 21 749.2c-0.9 0.4-1.7 0.6-2.5 0.6z"  /><path d="M677.6 674.8c-2.3 0-4.3-1.5-4.9-3.8-0.6-2.7 1-5.4 3.7-6 2.2-0.5 221.6-52.3 328.8-45.8 2.8 0.2 4.9 2.5 4.7 5.3s-2.5 4.8-5.3 4.7c-105.7-6.4-323.7 45-325.9 45.6-0.3-0.1-0.7 0-1.1 0zM1005 749.8c-0.8 0-1.6-0.2-2.3-0.6-33-17.4-95.4-38-205.3-37.1-66 0.5-118.4 8.7-118.9 8.8-2.7 0.4-5.3-1.4-5.7-4.2s1.4-5.3 4.2-5.7c0.5-0.1 53.6-8.4 120.4-8.9 61.8-0.5 148.5 5.7 210.1 38.2 2.4 1.3 3.4 4.3 2.1 6.8-1.1 1.7-2.8 2.7-4.6 2.7z"  /></svg>