<?xml version="1.0" standalone="no"?><!DOCTYPE svg PUBLIC "-//W3C//DTD SVG 1.1//EN" "http://www.w3.org/Graphics/SVG/1.1/DTD/svg11.dtd"><svg class="icon" width="200px" height="200.00px" viewBox="0 0 1024 1024" version="1.1" xmlns="http://www.w3.org/2000/svg"><path d="M187.2 341.7L77.9 232.4c-45.8-45.8-45.8-120.8 0-166.6s120.8-45.8 166.6 0l109.3 109.3c45.8 45.8 45.8 120.8 0 166.6s-120.8 45.8-166.6 0zM838.8 341.7l109.3-109.3c45.8-45.8 45.8-120.8 0-166.6s-120.7-45.8-166.6 0L672.2 175.2c-45.8 45.8-45.8 120.8 0 166.6 45.8 45.7 120.8 45.7 166.6-0.1z"  /><path d="M743.9 905.4l-140.7 15.9c-59.9 6.8-120.4 6.8-180.3 0l-140.7-15.9c-151.6 0-268.3-159.9-247.5-310.1l15.9-115c29.4-213.9 212.2-373.2 428-373.2h68.7c215.9 0 398.6 159.3 428.2 373.1l15.9 115c20.8 150.3-95.9 310.2-247.5 310.2z" fill="#FCFCFC" /><path d="M513 936.3c-30.5 0-61-1.7-91.3-5.1l-140.2-15.8c-35.3-0.1-69.7-8.4-102.3-24.6-30.8-15.4-58.6-37.2-82.6-64.7-56.2-64.6-83.2-151.3-72-232.1l15.9-115c14.7-106 67.1-202.9 147.6-273 80.5-70.2 183.7-108.8 290.5-108.8h68.7c106.8 0 210 38.6 290.5 108.8a442.92 442.92 0 0 1 147.6 272.9l15.9 115c11.2 80.8-15.8 167.5-72 232.1-24 27.6-51.8 49.4-82.6 64.7-32.6 16.3-67 24.6-102.3 24.6l-140.2 15.8c-30.2 3.5-60.7 5.2-91.2 5.2z m-34.4-819.2c-102 0-200.5 36.9-277.4 103.9-76.8 67-126.9 159.6-140.8 260.6l-15.9 115c-10.4 75.1 14.8 156 67.3 216.2 46.4 53.2 106.9 82.5 170.4 82.5h0.6l0.6 0.1 140.7 15.9c59.1 6.7 119 6.7 178.1 0l141.3-15.9h0.6c63.5 0 124-29.3 170.4-82.5 52.5-60.3 77.7-141.1 67.3-216.2l-15.9-115c-14-101-64-193.6-140.9-260.6-76.9-67-175.4-103.9-277.4-103.9h-69z" fill="#020202" /><path d="M433.4 495.1c19.4 75.4-54.2 166.4-129.6 185.8S179.7 669 160.3 593.6s26-222.8 101.4-242.2S414 419.7 433.4 495.1z"  /><path d="M298.6 513.9m-79.3 0a79.3 79.3 0 1 0 158.6 0 79.3 79.3 0 1 0-158.6 0Z" fill="#FFFFFF" /><path d="M298.6 513.9m-50.9 0a50.9 50.9 0 1 0 101.8 0 50.9 50.9 0 1 0-101.8 0Z"  /><path d="M315.2 500.6m-20.3 0a20.3 20.3 0 1 0 40.6 0 20.3 20.3 0 1 0-40.6 0Z" fill="#FFFFFF" /><path d="M592.6 495.1c-19.4 75.4 54.2 166.4 129.6 185.8s124.1-11.9 143.5-87.3c19.4-75.4-26-222.8-101.4-242.2S612 419.7 592.6 495.1z"  /><path d="M727.4 513.9m-79.3 0a79.3 79.3 0 1 0 158.6 0 79.3 79.3 0 1 0-158.6 0Z" fill="#FFFFFF" /><path d="M727.4 513.9m-50.9 0a50.9 50.9 0 1 0 101.8 0 50.9 50.9 0 1 0-101.8 0Z"  /><path d="M710.8 500.6m-20.3 0a20.3 20.3 0 1 0 40.6 0 20.3 20.3 0 1 0-40.6 0Z" fill="#FFFFFF" /><path d="M466.3 695.3a46.7 34.5 0 1 0 93.4 0 46.7 34.5 0 1 0-93.4 0Z"  /><path d="M485.9 823.1c0 9.5-12.1 17.1-27.1 17.1-15 0-27.1-7.7-27.1-17.1" fill="#FCFCFC" /><path d="M458.8 850.3c-20.8 0-37.1-11.9-37.1-27.1 0-5.5 4.5-10 10-10s10 4.5 10 10c0 2.2 6.5 7.1 17.1 7.1 10.6 0 17.1-5 17.1-7.1 0-5.5 4.5-10 10-10s10 4.5 10 10c0 15.1-16.3 27.1-37.1 27.1z"  /><path d="M594.3 823.1c0 9.5-12.1 17.1-27.1 17.1-15 0-27.1-7.7-27.1-17.1" fill="#FCFCFC" /><path d="M567.2 850.3c-20.8 0-37.1-11.9-37.1-27.1 0-5.5 4.5-10 10-10s10 4.5 10 10c0 2.2 6.5 7.1 17.1 7.1s17.1-5 17.1-7.1c0-5.5 4.5-10 10-10s10 4.5 10 10c0 15.1-16.3 27.1-37.1 27.1z"  /><path d="M485.9 823.1c0-9.5 12.1-17.1 27.1-17.1 15 0 27.1 7.7 27.1 17.1" fill="#FCFCFC" /><path d="M550.1 823.1h-20c0-2.2-6.5-7.1-17.1-7.1-10.6 0-17.1 5-17.1 7.1h-20c0-15.2 16.3-27.1 37.1-27.1s37.1 11.9 37.1 27.1z"  /></svg>