<?xml version="1.0" standalone="no"?><!DOCTYPE svg PUBLIC "-//W3C//DTD SVG 1.1//EN" "http://www.w3.org/Graphics/SVG/1.1/DTD/svg11.dtd"><svg class="icon" width="200px" height="200.00px" viewBox="0 0 1024 1024" version="1.1" xmlns="http://www.w3.org/2000/svg"><path d="M931.4 514.6c0 199.6-187.6 348.9-419.1 348.9S93.2 714.2 93.2 514.6s187.6-361.5 419.1-361.5S931.4 315 931.4 514.6z" fill="#F489CB" /><path d="M512.3 873.7c-115.2 0-222.7-36.2-302.8-101.9-81.5-67-126.4-158.3-126.4-257.2 0-50.4 11.4-99.2 34-145.2 21.7-44.3 52.8-84 92.3-118.1 39.4-34 85.3-60.7 136.4-79.3 52.8-19.3 108.8-29 166.6-29s113.8 9.8 166.6 29c51.1 18.6 96.9 45.3 136.4 79.3 39.5 34.1 70.6 73.8 92.3 118.1 22.5 46 34 94.8 34 145.2 0 98.9-44.9 190.2-126.4 257.2-80.3 65.7-187.8 101.9-303 101.9z m0-710.4c-55.4 0-109.1 9.4-159.7 27.8-48.8 17.8-92.5 43.2-130.1 75.6-37.4 32.3-66.8 69.9-87.3 111.7-21.2 43.2-31.9 89-31.9 136.2 0 92.7 42.3 178.5 119.1 241.5 76.4 62.8 179.4 97.3 289.9 97.3s213.5-34.6 289.9-97.3c76.8-63 119.1-148.8 119.1-241.5 0-47.2-10.7-93.1-31.9-136.2-20.5-41.8-49.9-79.4-87.3-111.7-37.6-32.4-81.3-57.8-130.1-75.6-50.6-18.5-104.3-27.8-159.7-27.8z" fill="#231815" /><path d="M373.1 453.5m-51 0a51 51 0 1 0 102 0 51 51 0 1 0-102 0Z" fill="#231815" /><path d="M329.2 441.1a19.6 18.7 0 1 0 39.2 0 19.6 18.7 0 1 0-39.2 0Z" fill="#FFFFFF" /><path d="M651.5 453.5m-51 0a51 51 0 1 0 102 0 51 51 0 1 0-102 0Z" fill="#231815" /><path d="M607.6 441.1a19.6 18.7 0 1 0 39.2 0 19.6 18.7 0 1 0-39.2 0Z" fill="#FFFFFF" /><path d="M321.8 677.4a190.5 107.9 0 1 0 381 0 190.5 107.9 0 1 0-381 0Z" fill="#FFFFFF" /><path d="M512.3 795.5c-52.6 0-102.2-11.7-139.7-32.9-39.3-22.3-60.9-52.5-60.9-85.1 0-32.6 21.6-62.9 60.9-85.1 37.5-21.2 87.1-32.9 139.7-32.9s102.2 11.7 139.7 32.9c39.3 22.3 60.9 52.5 60.9 85.1 0 32.6-21.6 62.9-60.9 85.1-37.5 21.2-87.1 32.9-139.7 32.9z m0-215.8c-49.2 0-95.2 10.8-129.7 30.3-32.7 18.5-50.6 42.5-50.6 67.5s18 49 50.6 67.5c34.5 19.5 80.5 30.3 129.7 30.3S607.5 764.5 642 745c32.7-18.5 50.6-42.5 50.6-67.5s-18-49-50.6-67.5c-34.5-19.6-80.6-30.3-129.7-30.3z" fill="#231815" /><path d="M443.5 673.5m-35.2 0a35.2 35.2 0 1 0 70.4 0 35.2 35.2 0 1 0-70.4 0Z" fill="#542E18" /><path d="M443.5 718.8c-25 0-45.3-20.3-45.3-45.3 0-25 20.3-45.3 45.3-45.3 25 0 45.3 20.3 45.3 45.3 0 25-20.3 45.3-45.3 45.3z m0-70.3c-13.8 0-25.1 11.2-25.1 25.1 0 13.8 11.2 25.1 25.1 25.1s25.1-11.2 25.1-25.1c-0.1-13.9-11.3-25.1-25.1-25.1z" fill="#231815" /><path d="M581.1 673.5m-35.2 0a35.2 35.2 0 1 0 70.4 0 35.2 35.2 0 1 0-70.4 0Z" fill="#542E18" /><path d="M581.1 718.8c-25 0-45.3-20.3-45.3-45.3 0-25 20.3-45.3 45.3-45.3 25 0 45.3 20.3 45.3 45.3 0 25-20.3 45.3-45.3 45.3z m0-70.3c-13.8 0-25.1 11.2-25.1 25.1 0 13.8 11.2 25.1 25.1 25.1s25.1-11.2 25.1-25.1c0-13.9-11.3-25.1-25.1-25.1z" fill="#231815" /><path d="M283.3 219.9c61.5 61.5 3.4 103.1-58.1 164.5S122.1 504 60.6 442.5s-61.5-161.1 0-222.6 161.2-61.5 222.7 0z" fill="#542E18" /><path d="M111.9 478.8c-19.7 0-38.8-9.5-58.4-29.2-65.3-65.3-65.3-171.6 0-236.9 31.6-31.6 73.7-49.1 118.5-49.1s86.8 17.4 118.5 49.1c19.8 19.8 29.3 39 29.1 58.8-0.3 35.4-31.4 65.7-67.6 100.7-6.4 6.2-13 12.7-19.7 19.3-6.6 6.6-13.1 13.3-19.3 19.7-35 36.1-65.3 67.3-100.7 67.6h-0.4zM172 183.9c-39.3 0-76.3 15.3-104.1 43.1-27.9 27.9-43.2 64.9-43.2 104.2S40 407.5 67.8 435.3c15.6 15.6 30 23.2 44.1 23.2h0.3c27-0.2 54.5-28.6 86.4-61.4 6.3-6.5 12.8-13.2 19.5-19.9 6.7-6.7 13.4-13.2 19.9-19.5 32.8-31.9 61.2-59.4 61.4-86.4 0.1-14.1-7.5-28.6-23.2-44.4-27.9-27.7-64.9-43-104.2-43z" fill="#231815" /><path d="M741.3 219.9c-61.5 61.5-3.4 103.1 58.1 164.5s103 119.6 164.5 58.1 61.5-161.1 0-222.6-161.1-61.5-222.6 0z" fill="#542E18" /><path d="M912.7 478.8h-0.5c-35.4-0.3-65.7-31.4-100.7-67.6-6.2-6.4-12.7-13-19.3-19.7-6.6-6.6-13.3-13.1-19.7-19.3-36.1-35-67.3-65.3-67.6-100.7-0.1-19.8 9.4-39.1 29.1-58.8 31.6-31.6 73.7-49.1 118.5-49.1S939.3 181 971 212.7c31.6 31.6 49.1 73.7 49.1 118.5S1002.7 418 971 449.7c-19.5 19.6-38.6 29.1-58.3 29.1z m-60.1-294.9c-39.3 0-76.3 15.3-104.1 43.1-15.7 15.7-23.3 30.2-23.2 44.4 0.2 27 28.6 54.5 61.4 86.4 6.5 6.3 13.1 12.8 19.9 19.5 6.7 6.7 13.2 13.4 19.5 19.9 31.9 32.8 59.4 61.2 86.4 61.4h0.3c14 0 28.4-7.6 44.1-23.2 27.8-27.8 43.1-64.8 43.1-104.1s-15.3-76.3-43.1-104.1c-28-28-64.9-43.3-104.3-43.3z" fill="#231815" /></svg>