<?xml version="1.0" standalone="no"?><!DOCTYPE svg PUBLIC "-//W3C//DTD SVG 1.1//EN" "http://www.w3.org/Graphics/SVG/1.1/DTD/svg11.dtd"><svg class="icon" width="200px" height="200.00px" viewBox="0 0 1024 1024" version="1.1" xmlns="http://www.w3.org/2000/svg"><path d="M891 502.7c0 205.6-169.6 345.7-378.9 345.7S133.2 708.3 133.2 502.7s169.6-385.5 378.9-385.5S891 297.1 891 502.7z" fill="#64666D" /><path d="M512.1 858.4c-105.5 0-203-34.9-274.5-98.2-36-31.9-64.2-69.7-83.7-112.5-20.4-44.6-30.7-93.4-30.7-144.9 0-51.7 10.3-102.4 30.6-150.8 19.6-46.9 47.7-89.3 83.2-126 35.9-37 77.4-66.1 123.6-86.5 48.2-21.4 99.2-32.2 151.5-32.2s103.3 10.8 151.5 32.2c46.1 20.4 87.7 49.5 123.6 86.5 35.6 36.7 63.6 79.1 83.2 126 20.3 48.3 30.6 99 30.6 150.7 0 51.5-10.3 100.3-30.7 144.9-19.5 42.8-47.7 80.6-83.7 112.5-71.5 63.4-169 98.3-274.5 98.3z m0-731.2c-49.5 0-97.8 10.3-143.4 30.5-43.8 19.4-83.2 47-117.3 82.2-33.8 34.9-60.5 75.2-79.2 119.8-19.2 45.9-29 94.1-29 143.1 0 48.6 9.7 94.6 28.9 136.6 18.3 40.2 44.8 75.8 78.7 105.8 67.9 60.1 160.7 93.2 261.3 93.2s193.4-33.1 261.3-93.2c33.9-30 60.4-65.6 78.7-105.8 19.2-42 28.9-88 28.9-136.6 0-49-9.8-97.2-29-143.1-18.7-44.6-45.3-84.9-79.2-119.8-34.1-35.1-73.5-62.8-117.3-82.2-45.6-20.3-93.9-30.5-143.4-30.5z" fill="#070707" /><path d="M358.6 409.7m-59.7 0a59.7 59.7 0 1 0 119.4 0 59.7 59.7 0 1 0-119.4 0Z" fill="#231815" /><path d="M344.6 401.6m-27.1 0a27.1 27.1 0 1 0 54.2 0 27.1 27.1 0 1 0-54.2 0Z" fill="#FFFFFF" /><path d="M371.6 440.5m-13 0a13 13 0 1 0 26 0 13 13 0 1 0-26 0Z" fill="#FFFFFF" /><path d="M665.5 409.7m-59.7 0a59.7 59.7 0 1 0 119.4 0 59.7 59.7 0 1 0-119.4 0Z" fill="#231815" /><path d="M651.4 401.6m-27.1 0a27.1 27.1 0 1 0 54.2 0 27.1 27.1 0 1 0-54.2 0Z" fill="#FFFFFF" /><path d="M678.5 440.5m-13 0a13 13 0 1 0 26 0 13 13 0 1 0-26 0Z" fill="#FFFFFF" /><path d="M658.9 760.5c-10.1 0-20.2-1.9-30-5.6-13.1-5-24.7-13.3-33.6-23.8l-0.4-0.5c-0.6-0.8-1.2-1.6-1.6-2.5-13.9-32.3-45.9-53.1-81.6-53.1-35 0-66.5 20.1-80.8 51.3-0.3 1.7-1 3.4-2.2 4.8-8.9 10.5-20.5 18.7-33.6 23.8-9.9 3.8-20 5.6-29.9 5.6-30.9 0-59.5-17.6-70.6-46.5-14.5-37.6-1.9-89.1 43.6-106.7 5.2-2 10.9 0.6 12.9 5.7 2 5.2-0.6 10.9-5.7 12.9-34.1 13.1-43.2 52.2-32.2 80.8 10.8 27.9 44.3 41.1 74.7 29.4 9.2-3.5 17.4-9.1 23.9-16.2 17.1-39.5 56.2-65 99.9-65 43.2 0 82 25 99.3 63.8 6.6 7.7 15.3 13.7 25 17.4 14.9 5.7 30.8 5.7 45 0 13.9-5.6 24.5-16.1 29.6-29.5 11-28.6 1.9-67.7-32.2-80.8-5.2-2-7.7-7.8-5.7-12.9 2-5.2 7.8-7.7 12.9-5.7 45.6 17.6 58.1 69 43.6 106.7-7.2 18.6-21.7 33.2-40.8 40.8-9.3 3.9-19.4 5.8-29.5 5.8z" fill="#070707" /><path d="M511.7 587.4c-5.5 0-10-4.5-10-10 0-15.9-19.7-29.2-43.1-29.2-5.5 0-10-4.5-10-10s4.5-10 10-10c16.3 0 31.7 4.8 43.5 13.5 12.6 9.3 19.6 22.1 19.6 35.8 0 5.4-4.4 9.9-10 9.9z" fill="#070707" /><path d="M511.8 675c-5.6 0-10-4.5-10-10.1l0.6-87.6c0-13.7 7-26.4 19.6-35.7 11.7-8.7 27.2-13.5 43.5-13.5 5.5 0 10 4.5 10 10s-4.5 10-10 10c-23.4 0-43.1 13.4-43.1 29.2l-0.6 87.7c0 5.6-4.5 10-10 10z" fill="#070707" /><path d="M9.1 792.1c-1.1 0-2.3-0.4-3.2-1.2-2.1-1.8-2.4-4.9-0.6-7 40.3-48.3 85.2-86.3 133.6-112.8 38.8-21.3 79.8-35.3 121.9-41.7 71.9-10.9 121.4 4 123.5 4.6 2.6 0.8 4.1 3.6 3.3 6.3-0.8 2.6-3.6 4.1-6.2 3.3-0.1 0-12.5-3.8-33.4-6.2-19.2-2.2-49.8-3.6-86.2 2-40.9 6.3-80.7 20-118.4 40.7C96.3 706 52.4 743.2 13 790.4c-1 1.1-2.4 1.7-3.9 1.7z" fill="#070707" /><path d="M61.3 805c-1.2 0-2.4-0.4-3.4-1.3-2-1.9-2.2-5-0.3-7.1 34.7-37.7 73.5-67.3 115.1-88.1 33.4-16.6 68.7-27.6 105-32.6 61.9-8.5 104.6 3.1 106.3 3.6 2.7 0.7 4.2 3.5 3.5 6.2-0.7 2.7-3.5 4.2-6.2 3.5-0.4-0.1-42.8-11.6-102.8-3.3-35.1 4.9-69.4 15.6-101.7 31.7-40.5 20.2-78.1 49-111.9 85.7-0.9 1.2-2.3 1.7-3.6 1.7z" fill="#070707" /><path d="M91.9 885.6c-0.8 0-1.7-0.2-2.5-0.7-2.4-1.4-3.2-4.4-1.8-6.8 21.3-36.8 48-68.7 79.4-94.8 25.1-20.9 53.3-38.2 83.8-51.3 51.9-22.4 91.9-25.1 93.5-25.2 2.7-0.2 5.1 1.9 5.3 4.7 0.2 2.8-1.9 5.1-4.7 5.3-0.4 0-40.2 2.7-90.6 24.5-29.5 12.8-56.8 29.5-81.2 49.8-30.4 25.3-56.3 56.3-77 91.9-0.7 1.7-2.4 2.6-4.2 2.6z" fill="#070707" /><path d="M1015 792.1c-1.4 0-2.9-0.6-3.8-1.8-39.4-47.2-83.3-84.3-130.4-110.3-37.7-20.7-77.5-34.4-118.4-40.7-36.4-5.6-67-4.2-86.2-2-20.8 2.4-33.2 6.1-33.4 6.2-2.6 0.8-5.4-0.7-6.2-3.3-0.8-2.6 0.7-5.4 3.3-6.2 2.1-0.6 51.6-15.5 123.5-4.6 42.1 6.4 83.1 20.5 121.9 41.7 48.3 26.6 93.3 64.5 133.6 112.8 1.8 2.1 1.5 5.3-0.6 7-1 0.8-2.2 1.2-3.3 1.2z" fill="#070707" /><path d="M962.9 805c-1.3 0-2.7-0.5-3.7-1.6-33.8-36.7-71.5-65.6-111.9-85.7-32.4-16.1-66.6-26.8-101.7-31.7-31.3-4.4-57.6-3.2-74.1-1.5-17.9 1.8-28.6 4.8-28.7 4.8-2.7 0.7-5.4-0.8-6.2-3.5-0.7-2.7 0.8-5.4 3.5-6.2 1.8-0.5 44.5-12.1 106.3-3.6 36.3 5 71.6 16 105 32.6 41.7 20.7 80.4 50.4 115.1 88.1 1.9 2 1.7 5.2-0.3 7.1-0.9 0.8-2.1 1.2-3.3 1.2z" fill="#070707" /><path d="M932.2 885.6c-1.7 0-3.4-0.9-4.3-2.5-20.6-35.7-46.5-66.6-77-91.9-24.4-20.3-51.7-37-81.2-49.8-50.3-21.8-90.2-24.5-90.6-24.5-2.8-0.2-4.9-2.5-4.7-5.3 0.2-2.8 2.5-4.8 5.3-4.7 1.7 0.1 41.7 2.8 93.5 25.2 30.4 13.1 58.6 30.4 83.8 51.3 31.4 26.1 58.2 58 79.4 94.8 1.4 2.4 0.6 5.4-1.8 6.8-0.7 0.4-1.6 0.6-2.4 0.6z" fill="#070707" /></svg>