<?xml version="1.0" standalone="no"?><!DOCTYPE svg PUBLIC "-//W3C//DTD SVG 1.1//EN" "http://www.w3.org/Graphics/SVG/1.1/DTD/svg11.dtd"><svg class="icon" width="200px" height="200.00px" viewBox="0 0 1024 1024" version="1.1" xmlns="http://www.w3.org/2000/svg"><path d="M300.2 301.9l-11.8 11.8c-37.6 37.6-99.2 37.6-136.8 0l-87.8-87.8c-37.6-37.6-37.6-99.2 0-136.8l11.8-11.8c37.6-37.6 99.2-37.6 136.8 0l87.8 87.8c37.6 37.6 37.6 99.2 0 136.8z" fill="#B5805D" /><path d="M220 349.3c-29.7 0-59.4-11.3-82-33.9l-76-76c-21.8-21.8-33.8-50.9-33.8-82s12-60.1 33.8-82c21.8-21.8 50.9-33.8 82-33.8s60.1 12 82 33.8l76 76c21.8 21.8 33.8 50.9 33.8 82s-12 60.1-33.8 82c-22.6 22.6-52.3 33.9-82 33.9zM144 63.4c-25.2 0-48.9 9.8-66.6 27.5-17.7 17.7-27.5 41.4-27.5 66.6 0 25.2 9.8 48.9 27.5 66.6l76 76c18.4 18.4 42.5 27.5 66.6 27.5 24.1 0 48.2-9.2 66.6-27.5 17.7-17.7 27.5-41.4 27.5-66.6 0-25.2-9.8-48.9-27.5-66.6l-76-76c-17.7-17.8-41.4-27.5-66.6-27.5z" fill="#231815" /><path d="M216.9 226l-4.4 4.4c-14.1 14.1-37.2 14.1-51.3 0l-48.5-48.5c-14.1-14.1-14.1-37.2 0-51.3l4.4-4.4c14.1-14.1 37.2-14.1 51.3 0l48.5 48.5c14.1 14.1 14.1 37.2 0 51.3z" fill="#542E18" /><path d="M186.8 250.5c-13.5 0-26.1-5.2-35.5-14.7l-44.1-44.1c-19.6-19.6-19.6-51.5 0-71.1 19.6-19.6 51.5-19.6 71.1 0l44.1 44.1c19.6 19.6 19.6 51.5 0 71.1-9.5 9.5-22.1 14.7-35.6 14.7z m-44-122.7c-7.7 0-14.8 3-20.2 8.3-5.4 5.4-8.3 12.5-8.3 20.2 0 7.7 3 14.8 8.3 20.2l44.1 44.1c5.4 5.4 12.5 8.3 20.2 8.3 7.7 0 14.8-3 20.2-8.3 11.1-11.1 11.1-29.2 0-40.3L163 136.1c-5.4-5.4-12.6-8.3-20.2-8.3z" fill="#231815" /><path d="M724 301.9l11.8 11.8c37.6 37.6 99.2 37.6 136.8 0l87.8-87.8c37.6-37.6 37.6-99.2 0-136.8l-11.8-11.8c-37.6-37.6-99.2-37.6-136.8 0L724 165.1c-37.6 37.6-37.6 99.2 0 136.8z" fill="#B5805D" /><path d="M804.2 349.2c-31 0-60.1-12-82-33.8l7.7-7.7-7.7 7.7c-21.8-21.8-33.8-50.9-33.8-82s12-60.1 33.8-82l76-76c21.8-21.8 50.9-33.8 82-33.8 31 0 60.1 12 82 33.8 21.8 21.9 33.8 51 33.8 82s-12 60.1-33.8 82l-76 76c-21.9 21.8-51 33.8-82 33.8z m76-285.8c-25.2 0-48.9 9.8-66.6 27.5l-76 76c-17.7 17.7-27.5 41.4-27.5 66.6 0 25.2 9.8 48.9 27.5 66.6 17.7 17.7 41.4 27.5 66.6 27.5 25.2 0 48.9-9.8 66.6-27.5l76-76c17.7-17.7 27.5-41.4 27.5-66.6 0-25.2-9.8-48.9-27.5-66.6-17.7-17.8-41.3-27.5-66.6-27.5z" fill="#231815" /><path d="M807.3 226l4.4 4.4c14.1 14.1 37.2 14.1 51.3 0l48.5-48.5c14.1-14.1 14.1-37.2 0-51.3l-4.4-4.4c-14.1-14.1-37.2-14.1-51.3 0l-48.5 48.5c-14.1 14.1-14.1 37.2 0 51.3z" fill="#542E18" /><path d="M837.3 250.5c-13.5 0-26.1-5.2-35.5-14.7-19.6-19.6-19.6-51.5 0-71.1l44.1-44.1c9.5-9.5 22.1-14.7 35.5-14.7 13.5 0 26.1 5.2 35.5 14.7 19.6 19.6 19.6 51.5 0 71.1l-44.1 44.1c-9.4 9.5-22 14.7-35.5 14.7z m-20.1-30c5.4 5.4 12.5 8.3 20.2 8.3 7.7 0 14.8-3 20.2-8.3l44.1-44.1c11.1-11.1 11.1-29.2 0-40.3-5.4-5.4-12.5-8.3-20.2-8.3-7.7 0-14.8 3-20.2 8.3l-44.1 44.1c-11.1 11.1-11.1 29.2 0 40.3z" fill="#231815" /><path d="M968.6 528.6c0 261.5-212.7 428.5-456.5 428.5S55.6 790.2 55.6 528.6 268.3 70.1 512.1 70.1s456.5 197 456.5 458.5z" fill="#B5805D" /><path d="M512.1 968c-124.6 0-240.7-42.2-326.9-118.9-44.1-39.2-78.5-85.9-102.4-138.7-25.2-55.7-38-116.8-38-181.8-0.1-127.6 49.7-246.6 140-335.1 43.1-42.3 93.2-75.4 148.9-98.6 57-23.7 117-35.7 178.4-35.7 61.4 0 121.4 12 178.4 35.7 55.7 23.2 105.8 56.3 148.9 98.6C929.7 282 979.5 401 979.5 528.6c0 64.9-12.8 126.1-38 181.8-23.9 52.8-58.4 99.5-102.4 138.7-86.3 76.7-202.4 118.9-327 118.9z m0-887.1c-58.5 0-115.7 11.5-170 34C289 137.1 241.2 168.7 200 209 113.9 293.4 66.5 406.9 66.5 528.6c0 61.8 12.1 120 36.1 172.8 22.7 50 55.3 94.2 97.1 131.4 82.2 73.2 193.2 113.4 312.5 113.4 119.3 0 230.3-40.3 312.5-113.4 41.8-37.2 74.4-81.4 97.1-131.4 23.9-52.9 36.1-111 36.1-172.8 0-121.7-47.4-235.2-133.6-319.6-41.2-40.3-89-72-142.1-94.1-54.4-22.5-111.6-34-170.1-34z" fill="#231815" /><path d="M312 451m-57.9 0a57.9 57.9 0 1 0 115.8 0 57.9 57.9 0 1 0-115.8 0Z" fill="#231815" /><path d="M267.6 440.5a21.2 20.2 0 1 0 42.4 0 21.2 20.2 0 1 0-42.4 0Z" fill="#FFFFFF" /><path d="M712.2 451m-57.9 0a57.9 57.9 0 1 0 115.8 0 57.9 57.9 0 1 0-115.8 0Z" fill="#231815" /><path d="M667.7 440.5a21.2 20.2 0 1 0 42.4 0 21.2 20.2 0 1 0-42.4 0Z" fill="#FFFFFF" /><path d="M728.9 751.7c0 106.2-105.4 222.3-216.8 222.3S295.3 857.8 295.3 751.7s105.4-132.2 216.8-132.2 216.8 26 216.8 132.2z" fill="#FFFFFF" /><path d="M512.1 984.8c-55.3 0-112.9-27.2-158.1-74.7-21-22.1-38.5-47.8-50.4-74.5-12.7-28.2-19.2-56.5-19.2-84 0-53.1 24.5-92 72.7-115.7 37-18.2 89.2-27.4 155-27.4s118 9.2 155 27.4c48.2 23.7 72.7 62.6 72.7 115.7 0 27.5-6.4 55.7-19.2 84-12 26.6-29.4 52.4-50.4 74.5-45.2 47.5-102.8 74.7-158.1 74.7z m0-354.5c-62.5 0-111.4 8.5-145.4 25.2-40.7 20-60.5 51.5-60.5 96.2 0 48 23.8 101.6 63.6 143.5 41.1 43.2 93 67.9 142.3 67.9s101.2-24.8 142.3-67.9c39.8-41.8 63.6-95.5 63.6-143.5 0-44.7-19.8-76.2-60.5-96.2-34-16.7-82.9-25.2-145.4-25.2z" fill="#231815" /><path d="M594.2 824.6c0 40.2-39.9 84.1-82.1 84.1S430 864.8 430 824.6s39.9-50.1 82.1-50.1 82.1 10 82.1 50.1z" fill="#B5805D" /><path d="M512.1 919.6c-22.8 0-46.3-11.1-64.7-30.4-17.9-18.8-28.2-42.4-28.2-64.6 0-22.6 10.8-39.8 31.3-49.8 15.2-7.4 35.3-11.1 61.6-11.1 26.3 0 46.5 3.6 61.6 11.1 20.5 10.1 31.3 27.3 31.3 49.8 0 22.2-10.3 45.8-28.2 64.6-18.4 19.4-41.9 30.4-64.7 30.4z m0-134.1c-71.2 0-71.2 29.5-71.2 39.2 0 35.6 36.6 73.3 71.2 73.3s71.2-37.7 71.2-73.3c0-9.7 0-39.2-71.2-39.2z" fill="#231815" /></svg>