<?xml version="1.0" standalone="no"?><!DOCTYPE svg PUBLIC "-//W3C//DTD SVG 1.1//EN" "http://www.w3.org/Graphics/SVG/1.1/DTD/svg11.dtd"><svg class="icon" width="200px" height="200.00px" viewBox="0 0 1024 1024" version="1.1" xmlns="http://www.w3.org/2000/svg"><path d="M629.1 106.6c1.6 38.9-10.3 112.6-28.6 113.3s-36.1-71.7-37.7-110.6c-1.6-38.9 12-71.1 30.3-71.9 18.3-0.7 34.4 30.3 36 69.2z" fill="#AF221E" /><path d="M600.2 230.2c-13.7 0-24.7-15.2-34.6-47.7-7.1-23.3-12.2-51.8-13-72.8-1.9-46 15.3-81.5 40.1-82.5 24.7-1 44.8 32.9 46.7 79 0.9 20.9-1.9 49.8-7 73.6-7.3 33.8-17.3 49.8-31.3 50.4h-0.9z m-6.5-182.5h-0.2c-9.3 0.4-22 24.4-20.4 61.2 0.7 17.6 5 42.3 10.8 63 6.9 24.2 13.2 34.2 16.2 37.1 2.7-3.2 8.3-13.6 13.2-38.3 4.1-21.1 6.3-46.1 5.6-63.7-1.5-36.5-15.8-59.3-25.2-59.3z" fill="#231815" /><path d="M569.8 82.6c1.6 38.9-10.3 112.6-28.6 113.3-18.3 0.7-36.1-71.7-37.7-110.6-1.6-38.9 12-71.1 30.3-71.9 18.2-0.8 34.4 30.2 36 69.2z" fill="#AF221E" /><path d="M540.9 206.1c-13.7 0-24.7-15.2-34.6-47.7-7.1-23.3-12.2-51.8-13-72.8-0.8-20.3 2.2-39.7 8.5-54.6 7.3-17.4 18.6-27.3 31.6-27.9 13.1-0.5 25 8.4 33.8 25.2 7.5 14.4 12.1 33.5 12.9 53.8 0.9 20.9-1.9 49.8-7 73.6-7.3 33.8-17.3 49.8-31.3 50.4h-0.9z m-6.5-182.5h-0.2c-4.5 0.2-9.7 6.1-13.6 15.4-5.1 12-7.6 28.8-6.9 45.9 0.7 17.6 5 42.3 10.8 63 6.9 24.2 13.2 34.2 16.2 37.1 2.7-3.2 8.3-13.6 13.2-38.3 4.1-21.1 6.3-46.1 5.6-63.7-0.7-17.1-4.6-33.6-10.6-45.1-4.5-8.9-10.1-14.3-14.5-14.3z" fill="#231815" /><path d="M222.5 857.9c-90.5 56.4-111.3 42.3-111.3 42.3l27.5-49.6C172 773.2 195.4 512 213.5 428 248 267.7 369.9 148.3 513.8 148.3S779.6 267.7 814.2 428c18.1 83.9 41.5 345.2 74.8 422.6l27.5 49.6-111.3-42.3c0 47.8-39.1 86.9-86.9 86.9-47.8 0-86.9-25-86.9-72.8v18.8c0 64.6-52.9 117.5-117.5 117.5s-117.5-52.9-117.5-117.5V872c0 47.8-39.1 72.8-86.9 72.8-47.9 0.1-87-39-87-86.9" fill="#F4BF56" /><path d="M513.8 1018.6c-59.8 0-110.1-41.3-123.9-96.8-16.7 20.9-45.1 33.3-80.5 33.3-47.7 0-87.5-34.5-95.6-79.9-32.1 19-58.5 30.7-78.7 35-18.8 4-26.9 0.3-29.6-1.5l-7.7-5.2 31.7-57.3c21.1-49.4 38.6-178.1 52.7-281.5 8-58.4 14.9-108.9 21.3-138.7 17.3-80.4 57.2-153.3 112.1-205.3 27.7-26.1 58.4-46.5 91.4-60.6 34.3-14.6 70.2-22 106.8-22 36.6 0 72.5 7.4 106.8 22 33 14 63.8 34.4 91.4 60.6 55 52 94.8 124.9 112.1 205.3 6.4 29.8 13.3 80.3 21.3 138.7 14.1 103.5 31.7 232.2 52.7 281.5l40.8 73.6-124.6-47.4c-7 46.8-47.4 82.7-96.1 82.7-35.4 0-63.8-12.4-80.5-33.3-13.8 55.5-64.1 96.8-123.9 96.8zM406.6 872v18.8c0 59.1 48.1 107.3 107.3 107.3 59.1 0 107.3-48.1 107.3-107.3V872h20.5c0 19.6 7.3 35.2 21.6 46.3 13.6 10.5 33.1 16.3 55.1 16.3 42.3 0 76.7-34.4 76.7-76.7v-14.8l99 37.6-14.2-25.6-0.2-0.5c-22.2-51.6-39.3-176.8-54.4-287.3-7.9-58-14.8-108.1-21-137.2C787.7 353.8 750 284.6 698 235.5c-25.9-24.5-54.6-43.5-85.4-56.6-31.7-13.5-65-20.3-98.8-20.3s-67.1 6.8-98.8 20.3c-30.8 13.1-59.5 32.1-85.4 56.6-52 49.2-89.7 118.3-106.2 194.7-6.3 29-13.1 79.1-21 137.2-15.1 110.5-32.2 235.7-54.4 287.3l-0.4 0.9-19.4 35.1c13.8-2.5 40.8-11.5 88.9-41.4l15.7-9.8v18.4c0 42.3 34.4 76.7 76.7 76.7 22 0 41.6-5.8 55.1-16.3 14.3-11.1 21.6-26.7 21.6-46.3h20.4z" fill="#231815" /><path d="M567.9 614.9l-54.1 139.5-54-139.5z" fill="#FFFFFF" /><path d="M513.8 764.7c-4.2 0-8-2.6-9.5-6.5l-54-139.6c-1.2-3.1-0.8-6.7 1.1-9.5 1.9-2.8 5.1-4.5 8.4-4.5h108.1c3.4 0 6.5 1.7 8.4 4.5 1.9 2.8 2.3 6.3 1.1 9.5l-54 139.6c-1.5 3.9-5.3 6.5-9.6 6.5z m-39.1-139.6l39.1 101 39.1-101h-78.2z" fill="#231815" /><path d="M623.3 407c-46.4 0-86.9 24.7-109.5 61.6-22.6-36.9-63.1-61.6-109.5-61.6-70.9 0-128.3 57.5-128.3 128.4s57.5 128.4 128.4 128.4c46.4 0 86.9-24.7 109.5-61.6 22.6 36.9 63.1 61.6 109.5 61.6 70.9 0 128.4-57.5 128.4-128.4S694.2 407 623.3 407z" fill="#FFFFFF" /><path d="M623.3 674c-24.2 0-48-6.3-68.8-18.3-15.7-9-29.6-21.2-40.7-35.5-11.1 14.3-25 26.5-40.7 35.5-20.8 12-44.6 18.3-68.8 18.3-76.4 0-138.6-62.2-138.6-138.6 0-76.4 62.2-138.6 138.6-138.6 24.2 0 48 6.3 68.8 18.3 15.7 9 29.6 21.2 40.7 35.5 11.1-14.3 25-26.5 40.7-35.5 20.8-12 44.6-18.3 68.8-18.3 76.4 0 138.6 62.2 138.6 138.6 0 76.5-62.1 138.6-138.6 138.6z m-109.5-82c3.6 0 6.9 1.9 8.7 4.9 21.7 35.5 59.4 56.7 100.8 56.7 65.1 0 118.1-53 118.1-118.1s-53-118.1-118.1-118.1c-41.4 0-79.1 21.2-100.8 56.7-1.9 3-5.2 4.9-8.7 4.9-3.6 0-6.9-1.9-8.7-4.9-21.7-35.5-59.4-56.7-100.8-56.7-65.1 0-118.1 53-118.1 118.1s53 118.1 118.1 118.1c41.4 0 79.1-21.2 100.8-56.7 1.9-3.1 5.2-4.9 8.7-4.9z" fill="#231815" /><path d="M405.8 535.4m-65.3 0a65.3 65.3 0 1 0 130.6 0 65.3 65.3 0 1 0-130.6 0Z" fill="#231815" /><path d="M391.8 516m-26.1 0a26.1 26.1 0 1 0 52.2 0 26.1 26.1 0 1 0-52.2 0Z" fill="#FFFFFF" /><path d="M418 568.7m-13.7 0a13.7 13.7 0 1 0 27.4 0 13.7 13.7 0 1 0-27.4 0Z" fill="#FFFFFF" /><path d="M352.7 532.1c-17 0-30.9-12-30.9-26.8 0-5.7 4.6-10.2 10.2-10.2 5.7 0 10.2 4.6 10.2 10.2 0 3 4.4 6.3 10.4 6.3 5.7 0 10.2 4.6 10.2 10.2s-4.4 10.3-10.1 10.3z" fill="#231815" /><path d="M621.8 535.4m-65.3 0a65.3 65.3 0 1 0 130.6 0 65.3 65.3 0 1 0-130.6 0Z" fill="#231815" /><path d="M635.8 516m-26.1 0a26.1 26.1 0 1 0 52.2 0 26.1 26.1 0 1 0-52.2 0Z" fill="#FFFFFF" /><path d="M609.7 568.7m-13.7 0a13.7 13.7 0 1 0 27.4 0 13.7 13.7 0 1 0-27.4 0Z" fill="#FFFFFF" /><path d="M675 532.1c-5.7 0-10.2-4.6-10.2-10.2s4.6-10.2 10.2-10.2c5.9 0 10.4-3.3 10.4-6.3 0-5.7 4.6-10.2 10.2-10.2s10.2 4.6 10.2 10.2c0 14.7-13.8 26.7-30.8 26.7z" fill="#231815" /><path d="M520.5 88.1c17.7 48.6 32.5 146.6 9.6 155-22.9 8.3-74.7-76.1-92.4-124.7S424.1 23.5 447 15.1c22.8-8.3 55.8 24.3 73.5 73z" fill="#AF221E" /><path d="M526.8 253.8c-14.5 0-32-15.2-53.2-46-18.2-26.4-36-60.1-45.5-86-9.1-24.9-13.1-50.2-11.2-71.1C419.1 27 428.5 11 443.5 5.5c15-5.5 32.5 0.7 49.4 17.5 14.9 14.8 28.2 36.7 37.2 61.6 9.4 25.9 17.5 63.2 20.6 95.1 4.2 43.4-1.4 67.2-17.1 73-2.2 0.7-4.4 1.1-6.8 1.1zM454.5 24.1c-1.4 0-2.7 0.2-4 0.7-6.9 2.5-11.8 12.9-13.2 27.8-1.6 18 1.9 40.1 10 62.3 8.5 23.3 24.7 54.3 41.3 78.8 21.9 32.5 34.8 39.7 37.9 39.8 2.4-2.1 7.6-15.9 3.4-54.9-3.1-29.5-10.6-63.6-19.2-86.9-8.1-22.1-19.6-41.3-32.4-54.1-8.6-8.8-17.2-13.5-23.8-13.5z" fill="#231815" /></svg>