<?xml version="1.0" standalone="no"?><!DOCTYPE svg PUBLIC "-//W3C//DTD SVG 1.1//EN" "http://www.w3.org/Graphics/SVG/1.1/DTD/svg11.dtd"><svg class="icon" width="200px" height="200.00px" viewBox="0 0 1024 1024" version="1.1" xmlns="http://www.w3.org/2000/svg"><path d="M538.6 937.5h-59.5c-160.4 0-297.1-114.3-322.6-269.8l-55.2-242.8C76.6 274.4 194.9 138 350.2 138h317.5c155.2 0 273.6 136.4 248.9 286.9l-55.2 242.8C835.7 823.2 699 937.5 538.6 937.5z" fill="#FCFCFC" /><path d="M538.6 947.5h-59.5c-79.9 0-157.5-28-218.3-78.9-60.8-50.9-101.4-121.5-114.2-199L91.4 426.8v-0.3c-6.2-37.7-4-75.2 6.5-111.4 10.1-34.8 27.2-66.6 51-94.5 49.9-58.8 123.3-92.6 201.3-92.6h317.5c78 0 151.3 33.7 201.3 92.6 23.7 28 40.9 59.8 51 94.5 10.5 36.3 12.7 73.8 6.5 111.4l-0.1 0.6L871 669.6c-12.8 77.4-53.3 148.1-114.2 199-60.8 50.9-138.3 78.9-218.2 78.9zM111.1 422.9l55.2 242.8v0.3c12 72.8 50.1 139.3 107.3 187.2 57.3 47.9 130.2 74.3 205.5 74.3h59.5c75.2 0 148.2-26.4 205.5-74.3 57.2-47.9 95.3-114.3 107.3-187.2l0.1-0.6 55.2-242.5c5.6-34.6 3.6-69-6-102.3-9.3-32.1-25.1-61.4-47-87.2-46.1-54.3-113.9-85.5-186-85.5H350.1c-72.1 0-139.9 31.2-186 85.5-21.9 25.8-37.7 55.1-47 87.2-9.6 33.3-11.7 67.7-6 102.3z" fill="#231815" /><path d="M345 543.4m-63.7 0a63.7 63.7 0 1 0 127.4 0 63.7 63.7 0 1 0-127.4 0Z" fill="#231815" /><path d="M330 534.8m-28.9 0a28.9 28.9 0 1 0 57.8 0 28.9 28.9 0 1 0-57.8 0Z" fill="#FFFFFF" /><path d="M358.9 576.3m-13.9 0a13.9 13.9 0 1 0 27.8 0 13.9 13.9 0 1 0-27.8 0Z" fill="#FFFFFF" /><path d="M672.7 543.4m-63.7 0a63.7 63.7 0 1 0 127.4 0 63.7 63.7 0 1 0-127.4 0Z" fill="#231815" /><path d="M657.6 534.8m-28.9 0a28.9 28.9 0 1 0 57.8 0 28.9 28.9 0 1 0-57.8 0Z" fill="#FFFFFF" /><path d="M686.5 576.3m-13.9 0a13.9 13.9 0 1 0 27.8 0 13.9 13.9 0 1 0-27.8 0Z" fill="#FFFFFF" /><path d="M596.1 781.2c0 33-39.1 73.5-87.3 73.5s-87.3-40.5-87.3-73.5 39.1-45.9 87.3-45.9 87.3 12.9 87.3 45.9z"  /><path d="M498.9 827.1h20v110.4h-20z"  /><path d="M23.5 515.9l28-257.5c-2.7-27.6 18.5-51.9 46.2-53.2L365.5 87.8c42.2-1.9 65.9 47.6 38.1 79.7L107.7 542.4c-27.8 32-80.2 15.6-84.2-26.5z" fill="#542E18" /><path d="M71.5 569.2c-6 0-12.1-0.9-18.1-2.8-22.3-7.1-37.6-26.1-39.9-49.5-0.1-0.7-0.1-1.4 0-2l27.9-256.5c-1.2-15.7 3.8-30.9 14.2-42.9 10.2-11.8 24.2-18.8 39.6-20L361.5 78.6c1.1-0.5 2.3-0.8 3.6-0.8 23.5-1.1 44.4 11.4 54.6 32.5 10.3 21.2 7.1 45.5-8.4 63.5L115.6 548.6c-0.1 0.1-0.2 0.2-0.3 0.4-11.5 13.1-27.3 20.2-43.8 20.2z m-38-53.3c2.1 17.7 14.7 27.8 26 31.4C71.1 551 87.7 550 100 536l295.7-374.7c0.1-0.1 0.2-0.2 0.3-0.4 12.3-14.1 11-30.9 5.7-41.9-5.1-10.4-16.5-21.3-33.8-21.3h-0.1L101.6 214.4c-1.1 0.5-2.3 0.8-3.6 0.8-10.6 0.5-20.4 5.2-27.4 13.3s-10.3 18.4-9.3 29c0.1 0.7 0.1 1.4 0 2L33.5 515.9z" fill="#231815" /><path d="M994.2 515.9l-28-257.5c2.7-27.6-18.5-51.9-46.2-53.2L652.2 87.8c-42.2-1.9-65.9 47.6-38.1 79.7L910 542.4c27.8 32 80.2 15.6 84.2-26.5z" fill="#542E18" /><path d="M946.2 569.2c-16.5 0-32.3-7.1-43.8-20.3-0.1-0.1-0.2-0.2-0.3-0.4L606.4 173.8c-15.5-18-18.7-42.3-8.4-63.5 10.2-21.1 31.2-33.6 54.7-32.5 1.2 0.1 2.4 0.3 3.6 0.8l266.3 116.7c15.4 1.2 29.4 8.3 39.6 20 10.4 12 15.4 27.2 14.2 42.9l27.9 256.5c0.1 0.7 0.1 1.4 0 2-2.3 23.4-17.5 42.4-39.9 49.5-6.1 2.1-12.2 3-18.2 3zM917.7 536c12.3 14 28.9 15 40.5 11.4 11.2-3.6 23.8-13.7 26-31.4l-27.9-256.4c-0.1-0.7-0.1-1.4 0-2 1-10.6-2.3-20.9-9.3-29-7-8.1-16.7-12.8-27.4-13.3-1.2-0.1-2.4-0.3-3.6-0.8L650 97.7h-0.1c-17.3 0-28.8 10.9-33.8 21.3-5.3 11-6.6 27.7 5.7 41.9 0.1 0.1 0.2 0.2 0.3 0.4L917.7 536z" fill="#231815" /></svg>