<?xml version="1.0" standalone="no"?><!DOCTYPE svg PUBLIC "-//W3C//DTD SVG 1.1//EN" "http://www.w3.org/Graphics/SVG/1.1/DTD/svg11.dtd"><svg class="icon" width="200px" height="200.00px" viewBox="0 0 1024 1024" version="1.1" xmlns="http://www.w3.org/2000/svg"><path d="M24.4 514.7a483.3 463.6 0 1 0 966.6 0 483.3 463.6 0 1 0-966.6 0Z" fill="#26A382" /><path d="M507.7 988.3c-66.5 0-131.1-12.5-191.9-37.2-58.7-23.8-111.5-57.9-156.8-101.4-45.3-43.5-80.9-94.1-105.8-150.5-25.8-58.4-38.8-120.5-38.8-184.5s13.1-126.1 38.8-184.5c24.9-56.4 60.5-107.1 105.8-150.5 45.3-43.5 98-77.6 156.8-101.4 60.8-24.7 125.3-37.2 191.9-37.2 66.5 0 131.1 12.5 191.9 37.2 58.7 23.8 111.5 57.9 156.8 101.4 45.3 43.5 80.9 94.1 105.8 150.5 25.8 58.4 38.8 120.5 38.8 184.5s-13.1 126.1-38.8 184.5c-24.9 56.4-60.5 107.1-105.8 150.5-45.3 43.5-98 77.6-156.8 101.4-60.8 24.7-125.3 37.2-191.9 37.2z m0-927.2c-63.9 0-126 12-184.3 35.7-56.4 22.9-107 55.6-150.4 97.3-43.4 41.7-77.5 90.2-101.3 144.2C47 394.2 34.5 453.5 34.5 514.7S47 635.3 71.6 691.1c23.8 54 57.9 102.5 101.3 144.2 43.5 41.7 94.1 74.4 150.4 97.3 58.4 23.7 120.4 35.7 184.3 35.7 63.9 0 126-12 184.3-35.7 56.4-22.9 107-55.6 150.4-97.3 43.4-41.7 77.5-90.2 101.3-144.2 24.6-55.9 37.1-115.2 37.1-176.4s-12.5-120.5-37.1-176.4c-23.8-54-57.9-102.5-101.3-144.2-43.5-41.7-94.1-74.4-150.4-97.3-58.2-23.7-120.2-35.7-184.2-35.7z" fill="#231815" /><path d="M302.4 475.4m-134.3 0a134.3 134.3 0 1 0 268.6 0 134.3 134.3 0 1 0-268.6 0Z" fill="#FFFFFF" /><path d="M302.4 619.7c-79.6 0-144.3-64.7-144.3-144.3 0-79.6 64.7-144.3 144.3-144.3s144.3 64.7 144.3 144.3c0 79.5-64.7 144.3-144.3 144.3z m0-268.6c-68.5 0-124.3 55.8-124.3 124.3s55.8 124.3 124.3 124.3 124.3-55.8 124.3-124.3c0-68.6-55.7-124.3-124.3-124.3z" fill="#231815" /><path d="M302.4 475.4m-78.7 0a78.7 78.7 0 1 0 157.4 0 78.7 78.7 0 1 0-157.4 0Z"  /><path d="M282 454.8m-31.4 0a31.4 31.4 0 1 0 62.8 0 31.4 31.4 0 1 0-62.8 0Z" fill="#FFFFFF" /><path d="M713 475.4m-134.3 0a134.3 134.3 0 1 0 268.6 0 134.3 134.3 0 1 0-268.6 0Z" fill="#FFFFFF" /><path d="M713 619.7c-79.6 0-144.3-64.7-144.3-144.3 0-79.6 64.7-144.3 144.3-144.3s144.3 64.7 144.3 144.3c0 79.5-64.7 144.3-144.3 144.3z m0-268.6c-68.5 0-124.3 55.8-124.3 124.3S644.5 599.7 713 599.7s124.3-55.8 124.3-124.3c0-68.6-55.7-124.3-124.3-124.3z" fill="#231815" /><path d="M713 475.4m-78.7 0a78.7 78.7 0 1 0 157.4 0 78.7 78.7 0 1 0-157.4 0Z"  /><path d="M692.6 454.8m-31.4 0a31.4 31.4 0 1 0 62.8 0 31.4 31.4 0 1 0-62.8 0Z" fill="#FFFFFF" /><path d="M756.2 912.4c-72.6 41.8-157.6 65.9-248.5 65.9-88.9 0-172.2-23-243.7-63.2-143.3-80.4 127.9-280.7 267-280.7 103.4 0 365.9 196.9 225.2 278z" fill="#FFFFFF" /><path d="M507.7 988.3c-87.5 0-173.5-22.3-248.6-64.5-47.8-26.8-49.7-63.9-42.8-90.2 6.1-23.2 21.3-48.1 45.4-73.8 21.6-23.1 49.7-46.2 81.3-66.7 66.3-43 136.6-68.7 188.1-68.7 39.1 0 99.2 25.5 156.9 66.5 62 44.2 104.1 94 115.6 136.8 7.3 27.3 5.9 65.6-42.3 93.3-76.4 44.1-164.1 67.3-253.6 67.3z m23.4-343.9c-47.1 0-115 25.1-177.2 65.5-63.7 41.4-107.9 89.6-118.2 128.8-7.5 28.8 3.3 50.9 33.2 67.7 72.1 40.5 154.7 61.9 238.8 61.9 86 0 170.2-22.3 243.5-64.6 30.2-17.4 41-40.6 32.9-70.8-10.1-37.8-50.4-84.8-107.9-125.7-53.5-38.1-110.5-62.8-145.1-62.8z" fill="#231815" /><path d="M733.6 715.9L578.5 848.8c-38.8 33.3-102.6 33.3-141.5 0L281.8 715.9h451.8z" fill="#F4BF56" /><path d="M507.7 883.8c-28 0-55.9-9.1-77.2-27.4L275.3 723.5c-3.2-2.7-4.3-7.1-2.9-11.1 1.5-3.9 5.2-6.5 9.4-6.5h451.8c4.2 0 7.9 2.6 9.4 6.5s0.3 8.3-2.9 11.1L585 856.4c-21.3 18.3-49.3 27.4-77.3 27.4zM308.9 725.9l134.6 115.3c17 14.5 39.8 22.5 64.2 22.5s47.2-8 64.2-22.5l134.6-115.3H308.9z" fill="#231815" /><path d="M733.6 709.3L552.1 810.9c-26.8 15-61.8 15-88.7 0L281.8 709.3l42.1-11.1c25.6-6.7 48.9-18.5 68-34.3l63.9-41.7c41.3-16.6 62.4-16.6 103.7 0l65.2 42.6c19.3 15.9 42.8 27.6 68.6 34.2l40.3 10.3z" fill="#F4BF56" /><path d="M507.7 832.2c-17.1 0-34.3-4.2-49.2-12.5L277 718c-3.6-2-5.6-5.9-5-10 0.5-4 3.4-7.4 7.4-8.4l42.1-11.1c24.1-6.3 46.3-17.5 64.2-32.4 0.3-0.2 0.6-0.5 0.9-0.7l63.9-41.7c0.5-0.4 1.1-0.7 1.7-0.9 43.7-17.5 67.6-17.5 111.2 0 0.6 0.2 1.2 0.5 1.7 0.9l65.2 42.6c0.3 0.2 0.6 0.4 0.9 0.7 18.1 14.9 40.5 26 64.8 32.3l40.2 10.3c4 1 6.9 4.3 7.4 8.4 0.5 4.1-1.5 8-5 10L556.9 819.6c-14.9 8.4-32 12.6-49.2 12.6zM308.3 712.6l160 89.5c24 13.4 54.9 13.4 78.9 0L707 712.7l-16-4.1c-26.9-6.9-51.8-19.3-72-35.9L555 631c-38.2-15.2-56.3-15.2-94.5 0l-62.6 40.9c-20.1 16.5-44.7 28.9-71.4 35.9l-18.2 4.8z" fill="#231815" /><path d="M460.8 691.4a11.8 21.9 0 1 0 23.6 0 11.8 21.9 0 1 0-23.6 0Z"  /><path d="M531.1 691.4a11.8 21.9 0 1 0 23.6 0 11.8 21.9 0 1 0-23.6 0Z"  /><path d="M223.7 237.9c-2.7 0-5.4-1.1-7.4-3.3-3.7-4.1-3.4-10.4 0.7-14.1 78.8-71.8 182.1-111.4 290.8-111.4 5.5 0 10 4.5 10 10s-4.5 10-10 10c-103.7 0-202.2 37.7-277.3 106.2-2 1.7-4.4 2.6-6.8 2.6z" fill="#231815" /></svg>