<?xml version="1.0" standalone="no"?><!DOCTYPE svg PUBLIC "-//W3C//DTD SVG 1.1//EN" "http://www.w3.org/Graphics/SVG/1.1/DTD/svg11.dtd"><svg class="icon" width="200px" height="200.00px" viewBox="0 0 1024 1024" version="1.1" xmlns="http://www.w3.org/2000/svg"><path d="M306.9 531c-34.1 18.4-186.4 435.1 44.5 50.8L306.9 531z" fill="#F4BF56" /><path d="M232 754c-1.1 0-2.1-0.1-3.1-0.3-3.1-0.6-10.6-3.3-12.4-15-3.9-26.3 22.8-96.4 31.1-117.2 9.4-23.6 19.4-46 28.4-63.1 14.2-27.2 21.5-33.6 26.2-36.2l7-3.8 54.6 62.3-3.8 6.3c-35.1 58.4-63.5 101.9-84.5 129.2-23 30.1-34.6 37.8-43.5 37.8z m74.5-208.3c-8.7 12.4-24.7 42.7-42.7 89.1-19.1 49.2-27.1 82.3-27.8 96 4.8-4 13.5-13 28.1-32.6 19.2-25.9 44.5-64.7 75-115.3l-32.6-37.2z"  /><path d="M719 531c34.1 18.4 186.4 435.1-44.5 50.8L719 531z" fill="#F4BF56" /><path d="M793.9 754c-8.9 0-20.5-7.8-43.6-37.8-21-27.4-49.4-70.8-84.5-129.2l-3.8-6.3 54.6-62.3 7 3.8c4.8 2.6 12 9 26.2 36.2 8.9 17.1 19 39.5 28.4 63.1 8.3 20.9 35 90.9 31.1 117.2-1.8 11.7-9.2 14.4-12.4 15-0.9 0.2-1.9 0.3-3 0.3zM686.8 582.9c30.5 50.6 55.8 89.3 75 115.3 14.6 19.6 23.3 28.5 28.1 32.6-0.7-13.7-8.6-46.8-27.8-96-18.1-46.5-34-76.7-42.7-89.1l-32.6 37.2z"  /><path d="M256.2 543.1c-39.6 19.3-107.2 75.8-147.5 58.5-40.3-17.3-53.5-108.4-75.4-154.1-43.8-91.5-15-197 64.3-235.6s179.1 4.2 222.9 95.6 15 197-64.3 235.6z" fill="#64666D" /><path d="M125.8 614.9c-7.4 0-14.4-1.3-21-4.1-31.9-13.7-47.1-61.4-61.8-107.5-6.2-19.4-12.1-37.8-18.6-51.5C2.1 405.4-3.1 354 9.7 307.2c12.9-47.3 42.6-84.4 83.6-104.4 37.1-18.1 80.1-20.1 121.3-5.8 49 17.1 90.9 55.7 114.9 106.1 22.2 46.4 27.4 97.8 14.6 144.6-12.9 47.3-42.6 84.4-83.6 104.4l-4.4-9 4.4 9c-9.8 4.8-21.8 12.2-34.6 20.1-32.7 20.2-69.1 42.7-100.1 42.7z m34-407.2c-20.1 0-39.8 4.4-57.8 13.2C27.8 257 1 356.8 42.4 443.2c7.2 15 13.2 34 19.6 54.1 12.7 39.9 27.1 85.1 50.6 95.1 25.1 10.8 68.2-15.9 102.9-37.2 13.2-8.1 25.6-15.8 36.3-21 74.3-36.2 101-135.9 59.7-222.3C289.7 266.2 252 231.3 208 216c-15.9-5.6-32.2-8.3-48.2-8.3z" fill="#070707" /><path d="M769.7 543.1c39.6 19.3 107.2 75.8 147.5 58.5 40.3-17.3 53.5-108.4 75.4-154.1 43.8-91.5 15-197-64.3-235.6s-179.1 4.2-222.9 95.6c-43.8 91.5-15 197 64.3 235.6z" fill="#64666D" /><path d="M900.1 614.9c-31 0-67.4-22.4-100.2-42.7-12.7-7.9-24.8-15.3-34.6-20.1-41-20-70.7-57-83.6-104.4-12.8-46.8-7.6-98.2 14.6-144.6 24.1-50.3 66-89 114.9-106.1 41.2-14.4 84.3-12.3 121.3 5.8 41 20 70.7 57 83.6 104.4 12.8 46.8 7.6 98.2-14.6 144.6-6.6 13.7-12.4 32.1-18.6 51.5-14.7 46.1-29.9 93.8-61.8 107.4-6.6 2.9-13.7 4.2-21 4.2zM866 207.7c-16 0-32.2 2.8-48.2 8.3-44 15.3-81.7 50.2-103.5 95.8-41.3 86.4-14.6 186.1 59.7 222.3 10.7 5.2 23.2 12.9 36.3 21 29.2 18 64.3 39.7 89.7 39.7 4.8 0 9.2-0.8 13.2-2.5 23.5-10.1 37.9-55.3 50.6-95.1 6.4-20.1 12.5-39.1 19.7-54.1 41.3-86.4 14.6-186.1-59.7-222.3-17.9-8.7-37.6-13.1-57.8-13.1z" fill="#070707" /><path d="M817.6 413.2c0-138.1-136.4-250-304.7-250s-304.7 111.9-304.7 250c0 60.5 26.2 116 69.7 159.2 0 0 257.9 180.9 83.6 234.6l-5.7 55.6s216.5 25 270.2-199.3c1.7-7.3 16.4-13.7 18.7-20.3 108.4-38.3 172.9-126.8 172.9-229.8z" fill="#64666D" /><path d="M375.3 873.3c-12.2 0-19.8-0.8-20.6-0.9-5.4-0.6-9.4-5.5-8.8-11l5.7-55.6c0.4-4 3.2-7.3 7-8.5 32.1-9.9 49.9-24.6 52.9-43.9 4.2-26.9-18-65-64.5-110.3-36.3-35.5-74.5-62.3-74.9-62.6-0.5-0.3-0.9-0.7-1.3-1.1-46.9-46.5-72.7-105.6-72.7-166.3 0-69.8 33-135.4 92.9-184.5 59.3-48.7 138.1-75.5 221.8-75.5s162.4 26.8 221.8 75.5c59.9 49.2 92.9 114.7 92.9 184.5 0 53.1-16.5 103.3-47.8 145.2-30.8 41.3-75.1 73.3-128.3 92.8-2.5 3.4-6 6.2-9.5 9-2.1 1.7-5.5 4.4-6.4 5.8-12.7 52.7-35.3 96.5-67.3 130-25.7 27-57.4 47.3-94.2 60.5-39.8 14.3-76.8 16.9-98.7 16.9z m-8.5-20.1c18 0.6 58.1-0.3 101.3-15.9 33.7-12.2 62.7-30.9 86.1-55.6 29.4-30.9 50.3-71.6 62-120.8 1.7-7.2 7.9-12.1 13.3-16.4 2-1.6 5-4 5.8-5.1 1.1-2.7 3.2-4.8 6-5.8 51-18 93.3-48.1 122.4-87.2 28.7-38.4 43.8-84.5 43.8-133.2 0-132.4-132.2-240-294.7-240s-294.7 107.7-294.7 240c0 28.2 5.9 55.8 17.7 82 11.3 25.2 27.6 48.6 48.5 69.5 5.7 4 41.5 29.9 76.6 64.2 52 50.7 75.6 93.7 70.2 127.7-4.1 25.9-24.4 45.4-60.5 57.8l-3.8 38.8z" fill="#070707" /><path d="M550.8 663.6h-88.1c-5.5 0-10-4.5-10-10s4.5-10 10-10h88.1c5.5 0 10 4.5 10 10s-4.5 10-10 10zM550.8 713.5h-88.1c-5.5 0-10-4.5-10-10s4.5-10 10-10h88.1c5.5 0 10 4.5 10 10s-4.5 10-10 10z" fill="#070707" /><path d="M369 479.3m-29.9 0a29.9 29.9 0 1 0 59.8 0 29.9 29.9 0 1 0-59.8 0Z"  /><path d="M656.8 479.3m-29.9 0a29.9 29.9 0 1 0 59.8 0 29.9 29.9 0 1 0-59.8 0Z"  /></svg>