<?xml version="1.0" standalone="no"?><!DOCTYPE svg PUBLIC "-//W3C//DTD SVG 1.1//EN" "http://www.w3.org/Graphics/SVG/1.1/DTD/svg11.dtd"><svg class="icon" width="200px" height="200.00px" viewBox="0 0 1024 1024" version="1.1" xmlns="http://www.w3.org/2000/svg"><path d="M271.5 290m-182.8 0a182.8 182.8 0 1 0 365.6 0 182.8 182.8 0 1 0-365.6 0Z" fill="#F4BF56" /><path d="M271.5 482.8c-106.3 0-192.8-86.5-192.8-192.8 0-106.3 86.5-192.8 192.8-192.8S464.3 183.7 464.3 290c0 106.3-86.5 192.8-192.8 192.8z m0-365.6c-95.3 0-172.8 77.5-172.8 172.8 0 95.3 77.5 172.8 172.8 172.8S444.3 385.3 444.3 290c0-95.3-77.5-172.8-172.8-172.8z" fill="#231815" /><path d="M63.3 614.2a448 302.2 0 1 0 896 0 448 302.2 0 1 0-896 0Z" fill="#26A382" /><path d="M511.3 926.4c-121.6 0-236.1-32-322.4-90.2-42.3-28.5-75.6-61.9-98.9-99-24.4-38.9-36.7-80.2-36.7-122.9S65.7 530.2 90 491.4c23.3-37.2 56.6-70.5 98.9-99 86.3-58.2 200.7-90.2 322.4-90.2s236.1 32 322.4 90.2c42.3 28.5 75.6 61.9 98.9 99 24.4 38.9 36.7 80.2 36.7 122.9s-12.4 84.1-36.7 122.9c-23.3 37.2-56.6 70.5-98.9 99-86.2 58.2-200.7 90.2-322.4 90.2z m0-604.4c-241.5 0-438 131.1-438 292.2s196.5 292.2 438 292.2 438-131.1 438-292.2S752.8 322 511.3 322z" fill="#231815" /><path d="M745.9 290m-182.8 0a182.8 182.8 0 1 0 365.6 0 182.8 182.8 0 1 0-365.6 0Z" fill="#F4BF56" /><path d="M745.9 482.8c-106.3 0-192.8-86.5-192.8-192.8 0-106.3 86.5-192.8 192.8-192.8 106.3 0 192.8 86.5 192.8 192.8 0 106.3-86.5 192.8-192.8 192.8z m0-365.6c-95.3 0-172.8 77.5-172.8 172.8 0 95.3 77.5 172.8 172.8 172.8 95.3 0 172.8-77.5 172.8-172.8 0-95.3-77.5-172.8-172.8-172.8z" fill="#231815" /><path d="M63.3 550.8a448 238.8 0 1 0 896 0 448 238.8 0 1 0-896 0Z" fill="#FFFFFF" /><path d="M511.3 799.6c-121.3 0-235.4-25.3-321.5-71.1-42.4-22.6-75.7-49-99.1-78.5-24.8-31.3-37.4-64.6-37.4-99.2s12.6-67.9 37.4-99.2c23.4-29.5 56.8-55.9 99.1-78.5 86-45.9 200.2-71.1 321.5-71.1s235.5 25.3 321.5 71.1c42.4 22.6 75.7 49 99.1 78.5 24.8 31.3 37.4 64.6 37.4 99.2S956.8 618.7 932 650c-23.4 29.5-56.8 55.9-99.1 78.5-86.1 45.9-200.3 71.1-321.6 71.1z m0-477.6c-118.1 0-228.9 24.4-312.1 68.8-39.9 21.3-71.2 45.9-92.9 73.3-21.9 27.6-33 56.8-33 86.7s11.1 59.1 33 86.7c21.7 27.4 53 52 92.9 73.3 83.2 44.3 194 68.8 312.1 68.8 118.1 0 228.9-24.4 312.1-68.8 39.9-21.3 71.2-45.9 92.9-73.3 21.9-27.6 33-56.8 33-86.7s-11.1-59.1-33-86.7c-21.7-27.4-53-52-92.9-73.3-83.2-44.4-194-68.8-312.1-68.8z" fill="#231815" /><path d="M271.5 290m-115.5 0a115.5 115.5 0 1 0 231 0 115.5 115.5 0 1 0-231 0Z" fill="#FFFFFF" /><path d="M271.5 415.4C202.3 415.4 146 359.2 146 290s56.3-125.5 125.5-125.5S396.9 220.8 396.9 290s-56.2 125.4-125.4 125.4z m0-230.9C213.3 184.5 166 231.8 166 290s47.3 105.5 105.5 105.5S376.9 348.1 376.9 290s-47.3-105.5-105.4-105.5z" fill="#231815" /><path d="M275.7 282.4m-46.5 0a46.5 46.5 0 1 0 93 0 46.5 46.5 0 1 0-93 0Z" fill="#231815" /><path d="M461.6 662.8m-24.8 0a24.8 24.8 0 1 0 49.6 0 24.8 24.8 0 1 0-49.6 0Z" fill="#231815" /><path d="M561.1 662.8m-24.8 0a24.8 24.8 0 1 0 49.6 0 24.8 24.8 0 1 0-49.6 0Z" fill="#231815" /><path d="M235.7 271.2a17.9 17.1 0 1 0 35.8 0 17.9 17.1 0 1 0-35.8 0Z" fill="#FFFFFF" /><path d="M745.9 290m-115.5 0a115.5 115.5 0 1 0 231 0 115.5 115.5 0 1 0-231 0Z" fill="#FFFFFF" /><path d="M745.9 415.4c-69.2 0-125.5-56.3-125.5-125.5s56.3-125.5 125.5-125.5S871.4 220.8 871.4 290c0 69.2-56.3 125.4-125.5 125.4z m0-230.9c-58.1 0-105.5 47.3-105.5 105.5s47.3 105.5 105.5 105.5S851.4 348.1 851.4 290 804 184.5 745.9 184.5z" fill="#231815" /><path d="M750.1 282.4m-46.5 0a46.5 46.5 0 1 0 93 0 46.5 46.5 0 1 0-93 0Z" fill="#231815" /><path d="M710.1 271.2a17.9 17.1 0 1 0 35.8 0 17.9 17.1 0 1 0-35.8 0Z" fill="#FFFFFF" /></svg>