<?xml version="1.0" standalone="no"?><!DOCTYPE svg PUBLIC "-//W3C//DTD SVG 1.1//EN" "http://www.w3.org/Graphics/SVG/1.1/DTD/svg11.dtd"><svg class="icon" width="200px" height="200.00px" viewBox="0 0 1024 1024" version="1.1" xmlns="http://www.w3.org/2000/svg"><path d="M689.3 74.3c-65.5 0-126.5-4.9-178 31.2-51.5-36.1-112.5-31.2-178-31.2C149.2 74.3 24.5 239.8 24.5 444s163.6 369.7 314.8 382.7C404.5 832.3 511.4 951 511.4 951s118.9-115.3 183.9-124.3c151.6-20.9 303-178.5 303-382.7S873.5 74.3 689.3 74.3z" fill="#542E18" /><path d="M511.3 961.7h-0.4c-2.9-0.1-5.7-1.4-7.7-3.6-28.9-32.1-115-116.5-165-120.7-38.4-3.3-79-16.4-117.3-37.9-37.7-21.2-73.7-50.7-104-85.4C50.4 637.8 13.7 541.8 13.7 444c0-103.1 31.2-198.3 87.8-268.2 28.6-35.3 62.6-63 101.1-82.1 40.2-20 84.2-30.2 130.8-30.2 7 0 14.1-0.1 20.9-0.1 56.4-0.5 109.8-0.9 157 29.1 47.3-30 100.7-29.6 157-29.1 6.8 0.1 13.9 0.1 20.9 0.1 46.5 0 90.5 10.2 130.8 30.2 38.5 19.2 72.5 46.8 101.1 82.1 56.6 69.9 87.8 165.1 87.8 268.2 0 97.7-34.5 192.5-97.2 267-58.5 69.5-136.9 115.6-215.2 126.4-24.6 3.4-62.9 25.2-110.9 63.2-37 29.3-66.6 57.9-66.9 58.2-1.9 1.9-4.6 2.9-7.4 2.9z m-136-876.8c-6.8 0-13.7 0.1-20.8 0.1-6.9 0.1-14 0.1-21.1 0.1-43.2 0-83.9 9.4-121.1 27.9-35.7 17.8-67.3 43.5-94 76.4-53.5 66-83 156.5-83 254.6 0 92.6 34.8 183.5 98 255.9 28.7 32.9 62.7 60.8 98.3 80.8 35.6 20 73.2 32.2 108.6 35.2 29.4 2.5 68.6 25 116.7 66.9 24.3 21.2 44.6 41.8 55 52.8C540.2 909.2 635.5 824 693.8 816c73-10.1 146.5-53.4 201.6-118.9 59.4-70.6 92.1-160.5 92.1-253.1 0-98.1-29.5-188.6-83-254.6-26.7-32.9-58.3-58.6-94-76.4-37.2-18.5-78-27.9-121.1-27.9-7.1 0-14.2-0.1-21.1-0.1-57.7-0.5-107.5-0.9-150.6 29.4-3.7 2.6-8.7 2.6-12.4 0-38-26.6-81.1-29.5-130-29.5z" fill="#231815" /><path d="M739.5 413.6c5.9-11.6 8.8-25.5 8.2-46.4-2.3-87-70.8-155.8-153.1-155.8H428c-82.4 0-150.8 68.8-153.1 155.8-0.6 21 2.4 34.8 8.2 46.4 12.1 24 6.7 53.2-14.3 68.9-47.8 35.8-76.6 88.7-76.6 128.9 0 89.4 142.9 189.3 319.1 189.3 176.2 0 319.1-99.9 319.1-189.3 0-40.2-28.9-93.1-76.6-128.9-21-15.6-26.4-44.9-14.3-68.9z" fill="#FFFFFF" /><path d="M511.3 811.6c-84.5 0-166.7-22.3-231.4-62.8-29.7-18.6-54.4-40.6-71.4-63.6-17.8-24.2-27.2-49.7-27.2-73.7 0-46 32.5-101.2 81-137.5 16.4-12.3 21.1-35.6 11.1-55.4-7.1-14-10-30-9.4-51.6 1.2-44.7 18.8-86.6 49.7-117.8 30.8-31.3 71.4-48.5 114.3-48.5h166.6c42.8 0 83.4 17.2 114.3 48.5 30.8 31.3 48.5 73.1 49.7 117.8 0.6 21.6-2.3 37.6-9.4 51.6-10 19.8-5.3 43.1 11.1 55.4 48.4 36.3 81 91.6 81 137.5 0 24.1-9.4 49.6-27.2 73.7-16.9 23-41.6 45-71.4 63.6-64.7 40.5-146.8 62.8-231.4 62.8zM428 222.1c-37 0-72.1 14.9-98.9 42.1-27 27.3-42.4 64-43.4 103.2-0.5 17.9 1.7 30.6 7.1 41.3 14.7 29.2 7.4 63.9-17.5 82.5-42.6 31.9-72.3 81.3-72.3 120.2 0 39.9 33 84.4 88.4 119 61.3 38.4 139.4 59.5 219.9 59.5s158.6-21.1 219.9-59.5c55.3-34.6 88.4-79.1 88.4-119 0-38.9-29.7-88.3-72.3-120.2-24.8-18.6-32.2-53.3-17.5-82.5 5.4-10.7 7.6-23.4 7.1-41.3-1.1-39.2-16.5-75.9-43.4-103.2-26.8-27.1-61.9-42.1-98.9-42.1H428z" fill="#231815" /><path d="M365.8 184.8s9.7 154.3 22.7 127.2c13-27.1 71.3-113.6 71.3-113.6s6.5 161.9-16.2 157c0 0 97.2-23.4 145.8-170.6V312l119.3-109.8" fill="#542E18" /><path d="M444.6 366.3c-1.1 0-2.2-0.1-3.3-0.4-4.9-1.1-8.5-5.4-8.5-10.4-0.1-5 3.4-9.5 8.3-10.6 0 0 0.1 0 0.3-0.1 2.1-4.4 7.2-20.7 8.3-76.6 0.2-12.4 0.2-24.6 0.1-35.1-18.1 27.5-43.7 67.2-51.5 83.6-4.9 10.2-12.9 9.6-15.2 9.1-9.3-1.8-12.9-11.9-16.3-29.9-2.1-11.2-4.2-26.5-6.2-45.6-3.4-32.2-5.5-64.5-5.5-64.8-0.4-6 4.2-11.1 10.1-11.5 6-0.4 11.1 4.2 11.5 10.1 2.4 38.8 6.8 82.7 11.1 106.7 20.5-35.2 61-95.4 63.1-98.4 2.6-3.9 7.4-5.6 11.9-4.4 4.5 1.3 7.7 5.3 7.9 10 0 0.4 1.4 36 0.6 73-0.5 21.9-1.6 40.1-3.4 54-0.4 3.1-0.8 6-1.3 8.7 7.6-4.3 16.5-10.1 26-17.7 26.2-21.2 62.5-61.8 86.5-134.6 1.7-5 6.8-8.1 12-7.3 5.2 0.8 9.1 5.4 9.1 10.7v102.6l101.2-93.1c4.4-4 11.2-3.8 15.3 0.6 4 4.4 3.8 11.2-0.6 15.3L596.7 319.9c-3.2 2.9-7.7 3.7-11.7 1.9-3.9-1.7-6.5-5.6-6.5-9.9v-72.3c-23.6 47.3-51.7 76.7-73.5 94.1-22.5 17.9-42 26.4-51.9 30-2.6 1.7-5.5 2.6-8.5 2.6z" fill="#231815" /><path d="M401.6 455.4m-50 0a50 50 0 1 0 100 0 50 50 0 1 0-100 0Z" fill="#231815" /><path d="M363.2 446.4a18.3 17.5 0 1 0 36.6 0 18.3 17.5 0 1 0-36.6 0Z" fill="#FFFFFF" /><path d="M621.1 455.4m-50 0a50 50 0 1 0 100 0 50 50 0 1 0-100 0Z" fill="#231815" /><path d="M582.7 446.4a18.3 17.5 0 1 0 36.6 0 18.3 17.5 0 1 0-36.6 0Z" fill="#FFFFFF" /><path d="M446.3 568.7a65 40.5 0 1 0 130 0 65 40.5 0 1 0-130 0Z" fill="#B7A92C" /><path d="M511.3 620c-42.5 0-75.9-22.5-75.9-51.3 0-28.8 33.3-51.3 75.9-51.3s75.9 22.5 75.9 51.3c0 28.8-33.3 51.3-75.9 51.3z m0-81c-25.7 0-54.2 12.2-54.2 29.7s28.6 29.7 54.2 29.7c25.7 0 54.2-12.2 54.2-29.7 0.1-17.5-28.5-29.7-54.2-29.7z" fill="#231815" /><path d="M511.3 746.3c-37.7 0-72.3-21.8-88-55.4-2.5-5.4-0.2-11.8 5.2-14.4 5.4-2.5 11.8-0.2 14.4 5.2 12.2 26.1 39.1 43 68.5 43s56.3-16.9 68.5-43c2.5-5.4 9-7.7 14.4-5.2s7.7 9 5.2 14.4c-15.8 33.7-50.4 55.4-88.2 55.4zM511.3 662.1c-6 0-10.8-4.8-10.8-10.8v-42.1c0-6 4.8-10.8 10.8-10.8 6 0 10.8 4.8 10.8 10.8v42.1c0 6-4.8 10.8-10.8 10.8z" fill="#231815" /><path d="M565.1 700.4c-16.6 0-32.1-4.9-43.9-13.7-13.4-10.1-20.7-24.7-20.7-41.1 0-6 4.8-10.8 10.8-10.8 6 0 10.8 4.8 10.8 10.8 0 21.8 21.6 33.2 43 33.2 21.9 0 39.7-17.8 39.7-39.7 0-6 4.8-10.8 10.8-10.8s10.8 4.8 10.8 10.8c0.1 33.8-27.5 61.3-61.3 61.3z" fill="#231815" /><path d="M457.6 700.4c-33.8 0-61.3-27.5-61.3-61.3 0-6 4.8-10.8 10.8-10.8s10.8 4.8 10.8 10.8c0 21.9 17.8 39.7 39.7 39.7 21.4 0 43-11.4 43-33.2 0-6 4.8-10.8 10.8-10.8 6 0 10.8 4.8 10.8 10.8 0 16.4-7.4 31-20.7 41.1-11.8 8.9-27.4 13.7-43.9 13.7z" fill="#231815" /><path d="M124 303.3l-65.7-65.7c-35.3-35.3-35.3-93 0-128.3 35.3-35.3 93-35.3 128.3 0l65.7 65.7" fill="#542E18" /><path d="M124 314.1c-2.8 0-5.5-1.1-7.6-3.2l-65.7-65.7c-39.6-39.6-39.6-104 0-143.6 39.6-39.6 104-39.6 143.6 0l65.7 65.7c4.2 4.2 4.2 11.1 0 15.3-4.2 4.2-11.1 4.2-15.3 0L178.9 117c-31.1-31.1-81.8-31.1-113 0-31.1 31.1-31.2 81.8 0 113l65.7 65.7c4.2 4.2 4.2 11.1 0 15.3-2.1 2-4.9 3.1-7.6 3.1z" fill="#231815" /><path d="M117.1 216.2l-19.7-19.7c-13.2-13.2-13.2-34.9 0-48.1 13.2-13.2 34.9-13.2 48.1 0l19.7 19.7" fill="#542E18" /><path d="M117.1 227.1c-2.8 0-5.5-1.1-7.6-3.2l-19.7-19.7c-8.4-8.4-13.1-19.7-13.1-31.7s4.6-23.3 13.1-31.7c8.4-8.4 19.7-13.1 31.7-13.1s23.3 4.6 31.7 13.1l19.7 19.7c4.2 4.2 4.2 11.1 0 15.3-4.2 4.2-11.1 4.2-15.3 0l-19.7-19.7c-4.4-4.4-10.2-6.8-16.4-6.8-6.2 0-12 2.4-16.4 6.8-4.4 4.4-6.8 10.2-6.8 16.4 0 6.2 2.4 12 6.8 16.4l19.7 19.7c4.2 4.2 4.2 11.1 0 15.3-2.2 2.1-4.9 3.2-7.7 3.2z" fill="#231815" /><path d="M898.7 303.3l65.7-65.7c35.3-35.3 35.3-93 0-128.3-35.3-35.3-93-35.3-128.3 0L770.4 175" fill="#542E18" /><path d="M898.7 314.1c-2.8 0-5.5-1.1-7.6-3.2-4.2-4.2-4.2-11.1 0-15.3l65.7-65.7c31.1-31.1 31.1-81.8 0-113-31.1-31.2-81.8-31.1-113 0l-65.7 65.7c-4.2 4.2-11.1 4.2-15.3 0-4.2-4.2-4.2-11.1 0-15.3l65.7-65.7c39.6-39.6 104-39.6 143.6 0 39.6 39.6 39.6 104 0 143.6l-65.7 65.7c-2.2 2.1-4.9 3.2-7.7 3.2z" fill="#231815" /><path d="M905.6 216.2l19.7-19.7c13.2-13.2 13.2-34.9 0-48.1-13.2-13.2-34.9-13.2-48.1 0l-19.7 19.7" fill="#542E18" /><path d="M905.6 227.1c-2.8 0-5.5-1.1-7.6-3.2-4.2-4.2-4.2-11.1 0-15.3l19.7-19.7c4.4-4.4 6.8-10.2 6.8-16.4 0-6.2-2.4-12-6.8-16.4-4.4-4.4-10.2-6.8-16.4-6.8-6.2 0-12.1 2.4-16.4 6.8l-19.7 19.7c-4.2 4.2-11.1 4.2-15.3 0-4.2-4.2-4.2-11.1 0-15.3l19.7-19.7c8.4-8.4 19.7-13.1 31.7-13.1s23.3 4.6 31.7 13.1c17.5 17.5 17.5 45.9 0 63.4l-19.7 19.7c-2.2 2.1-5 3.2-7.7 3.2z" fill="#231815" /></svg>