<?xml version="1.0" standalone="no"?><!DOCTYPE svg PUBLIC "-//W3C//DTD SVG 1.1//EN" "http://www.w3.org/Graphics/SVG/1.1/DTD/svg11.dtd"><svg class="icon" width="200px" height="200.00px" viewBox="0 0 1024 1024" version="1.1" xmlns="http://www.w3.org/2000/svg"><path d="M723.7 836.4l-67.4-15.8L513 931.1 369.6 820.6l-67.4 15.8C144 836.4 14.6 706.9 14.6 548.6c0-158.2 129.5-287.7 287.7-287.7h421.4c158.2 0 287.7 129.5 287.7 287.7 0 158.3-129.5 287.8-287.7 287.8z" fill="#B5805D" /><path d="M513 941.4c-2.2 0-4.4-0.7-6.3-2.1L367.2 831.7l-62.6 14.7c-0.8 0.2-1.6 0.3-2.3 0.3-79.3 0-154-31.1-210.5-87.5C35.4 702.7 4.3 627.9 4.3 548.6c0-79.3 31.1-154 87.5-210.5s131.2-87.5 210.5-87.5h421.4c79.3 0 154 31.1 210.5 87.5 56.4 56.4 87.5 131.2 87.5 210.5 0 79.3-31.1 154-87.5 210.5-56.4 56.4-131.2 87.5-210.5 87.5-0.8 0-1.6-0.1-2.3-0.3l-62.6-14.7-139.5 107.6c-1.9 1.5-4.1 2.2-6.3 2.2zM369.6 810.3c2.3 0 4.5 0.7 6.3 2.1L513 918.1l137-105.7c2.4-1.9 5.6-2.6 8.6-1.9l66.2 15.5c73.4-0.3 142.5-29.2 194.8-81.5 52.6-52.6 81.5-122.1 81.5-195.9 0-73.8-28.9-143.4-81.5-195.9-52.6-52.6-122.1-81.5-195.9-81.5H302.3c-73.8 0-143.4 28.9-195.9 81.5-52.6 52.6-81.5 122.1-81.5 195.9 0 73.8 28.9 143.4 81.5 195.9 52.3 52.3 121.4 81.2 194.8 81.5l66.2-15.5c0.7-0.1 1.5-0.2 2.2-0.2z" fill="#231815" /><path d="M299.9 519.5m-184.2 0a184.2 184.2 0 1 0 368.4 0 184.2 184.2 0 1 0-368.4 0Z" fill="#FFFFFF" /><path d="M299.9 714c-107.2 0-194.5-87.2-194.5-194.5S192.7 325 299.9 325s194.5 87.2 194.5 194.5S407.2 714 299.9 714z m0-368.4c-95.9 0-173.9 78-173.9 173.9s78 173.9 173.9 173.9 173.9-78 173.9-173.9c0.1-95.9-78-173.9-173.9-173.9z" fill="#231815" /><path d="M731.5 519.5m-184.2 0a184.2 184.2 0 1 0 368.4 0 184.2 184.2 0 1 0-368.4 0Z" fill="#FFFFFF" /><path d="M731.5 714C624.3 714 537 626.8 537 519.5S624.3 325 731.5 325 926 412.3 926 519.5 838.7 714 731.5 714z m0-368.4c-95.9 0-173.9 78-173.9 173.9s78 173.9 173.9 173.9 173.9-78 173.9-173.9-78-173.9-173.9-173.9z" fill="#231815" /><path d="M340.3 490.6m-102.9 0a102.9 102.9 0 1 0 205.8 0 102.9 102.9 0 1 0-205.8 0Z" fill="#020202" /><path d="M284.1 480.4a28.1 34.3 0 1 0 56.2 0 28.1 34.3 0 1 0-56.2 0Z" fill="#FFFFFF" /><path d="M356.8 543a7.4 13.8 0 1 0 14.8 0 7.4 13.8 0 1 0-14.8 0Z" fill="#FFFFFF" /><path d="M687.7 490.6m-102.9 0a102.9 102.9 0 1 0 205.8 0 102.9 102.9 0 1 0-205.8 0Z" fill="#020202" /><path d="M634.4 480.4a28.1 34.3 0 1 0 56.2 0 28.1 34.3 0 1 0-56.2 0Z" fill="#FFFFFF" /><path d="M565.6 576.5c0 53-52.6 96-52.6 96s-52.6-43-52.6-96 23.6-96 52.6-96c29-0.1 52.6 42.9 52.6 96z" fill="#B7A92C" /><path d="M513 682.8c-2.3 0-4.6-0.8-6.5-2.3-2.3-1.9-56.4-46.7-56.4-104 0-59.6 27.6-106.3 62.9-106.3s62.9 46.7 62.9 106.3c0 57.3-54.1 102.1-56.4 104-1.9 1.5-4.2 2.3-6.5 2.3z m0-192.1c-10 0-20.3 8.3-28.2 22.8-9.1 16.7-14.1 39-14.1 63 0 36.9 29 69.2 42.3 82.1 13.3-12.9 42.4-45.4 42.4-82.1 0-24-5-46.3-14.1-63-8.1-14.5-18.3-22.8-28.3-22.8z" fill="#231815" /><path d="M929 94.2l-174 85.5h-6.5c-32.1-32-123.9-55.1-232.3-55.1s-200.1 23.1-232.3 55.1h-12.4l-174-85.5c-32.1-9.3-49.6 19.7-34.8 46 89.4 158.4 450.4 395.1 450.4 395.1s375.1-235.4 450.4-395.1c13.1-27.1-2.3-55.3-34.5-46z" fill="#B5805D" /><path d="M513.4 545.6c-2 0-3.9-0.6-5.6-1.7-0.9-0.6-91.8-60.3-192.4-138.6C179.7 299.6 91.8 212.2 54 145.3c-9.4-16.7-8.8-36 1.6-49.1 10-12.7 26.8-17.1 45-11.8 0.6 0.2 1.1 0.4 1.7 0.6l171.8 84.4h5.9c17.9-15.9 48.6-29.5 89.2-39.3 42.9-10.4 93.8-15.8 147.1-15.8s104.2 5.5 147.1 15.8c40.6 9.8 71.3 23.3 89.2 39.3L924.5 85c0.5-0.3 1.1-0.5 1.7-0.6 17.5-5.1 33.3-1.3 43.2 10.3 10.7 12.5 12.2 32.2 3.7 50-32 67.7-118.3 155.6-256.5 261.2C614.2 484 519.8 543.4 518.9 544c-1.7 1.1-3.6 1.6-5.5 1.6zM86 102.7c-6 0-11 2.1-14.2 6.2-5.2 6.6-5.1 16.9 0.2 26.3 35.9 63.6 124.5 151.4 256.1 253.9 85.8 66.8 164.4 119.9 185.5 134 21.7-13.9 103.3-66.9 190.7-133.7 133.6-102.1 220.2-189.7 250.3-253.5 5-10.5 4.7-21.5-0.8-27.9-4.4-5.1-11.8-6.6-21-4.1l-173.1 85c-1.4 0.7-3 1.1-4.5 1.1h-6.5c-2.7 0-5.3-1.1-7.3-3-30.8-30.7-123.3-52.1-225-52.1s-194.2 21.4-225 52.1c-1.9 1.9-4.5 3-7.3 3h-12.4c-1.6 0-3.1-0.4-4.5-1.1l-173.1-85c-2.9-0.8-5.6-1.2-8.1-1.2z" fill="#231815" /><path d="M689.7 543a7.4 13.8 0 1 0 14.8 0 7.4 13.8 0 1 0-14.8 0Z" fill="#FFFFFF" /></svg>