<?xml version="1.0" standalone="no"?><!DOCTYPE svg PUBLIC "-//W3C//DTD SVG 1.1//EN" "http://www.w3.org/Graphics/SVG/1.1/DTD/svg11.dtd"><svg class="icon" width="200px" height="200.00px" viewBox="0 0 1024 1024" version="1.1" xmlns="http://www.w3.org/2000/svg"><path d="M24.773015 566.314255a74.6 142.9 52.345 1 0 226.268883-174.596771 74.6 142.9 52.345 1 0-226.268883 174.596771Z" fill="#F4BF56" /><path d="M69.8 594.4c-22.7 0-41.5-7.2-53-22-29-37.6 1.5-108 69.4-160.4 31.5-24.3 66.2-40.8 97.7-46.4 33.8-6 60.5 1.1 75 19.9 14.6 18.9 14.7 46.4 0.3 77.6-13.4 29.1-38.1 58.5-69.6 82.8-41 31.7-85 48.5-119.8 48.5zM206 383.6c-5.8 0-12 0.6-18.6 1.7-28.4 5.1-60 20.2-89 42.5-29 22.4-51.6 49.1-63.7 75.3-11 23.7-11.7 44.5-2.1 57s29.9 17 55.7 12.5c28.4-5.1 60-20.2 89-42.5 29-22.4 51.6-49.1 63.7-75.3 11-23.7 11.7-44.5 2.1-57-7.2-9.3-20.3-14.2-37.1-14.2z" fill="#231815" /><path d="M244.885 383.753l12.218 15.834L30.835 574.183l-12.218-15.834z" fill="#231815" /><path d="M999.836144 566.228869a142.9 74.6 37.655 1 0-226.268883-174.59677 142.9 74.6 37.655 1 0 226.268883 174.59677Z" fill="#F4BF56" /><path d="M954.8 594.4c-34.8 0-78.7-16.8-119.8-48.4-31.5-24.3-56.2-53.7-69.6-82.8-14.4-31.2-14.3-58.8 0.3-77.6 14.6-18.9 41.2-26 75-19.9 31.5 5.6 66.2 22.1 97.7 46.4 67.9 52.4 98.3 122.8 69.4 160.4-11.5 14.7-30.2 21.9-53 21.9zM818.7 383.6c-16.9 0-29.9 4.9-37.1 14.2-9.6 12.5-8.9 33.3 2.1 57 12.1 26.2 34.7 53 63.7 75.3 29 22.4 60.6 37.4 89 42.5 25.7 4.6 46.1 0 55.7-12.5 9.6-12.5 8.9-33.3-2.1-57-12.1-26.2-34.7-53-63.7-75.3-29-22.4-60.6-37.4-89-42.5-6.6-1.2-12.8-1.7-18.6-1.7z" fill="#231815" /><path d="M779.746 383.847l226.268 174.624-12.22 15.834-226.268-174.624z" fill="#231815" /><path d="M512.3 964.2c-172.7 0-313.9-141.3-313.9-313.9V535.7c0-172.7 141.3-313.9 313.9-313.9 172.7 0 313.9 141.3 313.9 313.9v114.6c0 172.6-141.2 313.9-313.9 313.9z" fill="#FFFFFF" /><path d="M512.3 974.2c-43.5 0-85.9-8.6-125.8-25.6-38.5-16.4-73.2-39.8-103-69.6-29.8-29.8-53.2-64.4-69.6-103-17-39.9-25.6-82.3-25.6-125.8V535.7c0-43.5 8.6-85.9 25.6-125.8 16.4-38.5 39.8-73.2 69.6-103 29.8-29.8 64.4-53.2 103-69.6 39.9-17 82.3-25.6 125.8-25.6s85.9 8.6 125.8 25.6c38.5 16.4 73.2 39.8 103 69.6 29.8 29.8 53.2 64.4 69.6 103 17 39.9 25.6 82.3 25.6 125.8v114.6c0 43.5-8.6 85.9-25.6 125.8-16.4 38.5-39.8 73.2-69.6 103-29.8 29.8-64.4 53.2-103 69.6-39.9 16.9-82.2 25.5-125.8 25.5z m0-742.4c-80.8 0-157.1 31.7-214.6 89.3-57.6 57.6-89.3 133.8-89.3 214.6v114.6c0 80.8 31.7 157.1 89.3 214.6 57.6 57.6 133.8 89.3 214.6 89.3 80.8 0 157.1-31.7 214.6-89.3 57.6-57.6 89.3-133.8 89.3-214.6V535.7c0-80.8-31.7-157.1-89.3-214.6-57.5-57.6-133.7-89.3-214.6-89.3z" fill="#231815" /><path d="M857.8 265.6c-15.6 0-30.1 4.9-42.2 13.1v-20.1c0-47.7-39-86.7-86.7-86.7s-86.7 39-86.7 86.7v-68.8c0-70.5-57.1-127.6-127.6-127.6S387 119.3 387 189.8v68.8c0-47.7-39-86.7-86.7-86.7s-86.7 39-86.7 86.7v23.9c-12.9-10.5-29.1-17-46.9-17-41.2 0-75 33.7-75 75v6.7c0 41.2 33.7 75 75 75 17.8 0 34-6.5 46.9-17v23.9c0 47.7 39 86.7 86.7 86.7s86.7-39 86.7-86.7V498c0 70.5 57.1 127.6 127.6 127.6S642.2 568.5 642.2 498v-68.8c0 47.7 39 86.7 86.7 86.7s86.7-39 86.7-86.7v-20.1c12 8.3 26.6 13.1 42.2 13.1 41.2 0 75-33.7 75-75v-6.7c0-41.2-33.8-74.9-75-74.9z" fill="#6BD6D6" /><path d="M514.7 635.6c-75.9 0-137.6-61.7-137.6-137.6v-10c-17.7 23-45.5 37.9-76.7 37.9-53.3 0-96.7-43.4-96.7-96.7v-5.6c-11.5 5.7-24 8.7-36.9 8.7-46.8 0-85-38.1-85-85v-6.7c0-46.8 38.1-85 85-85 12.9 0 25.4 3 36.9 8.7v-5.6c0-53.3 43.4-96.7 96.7-96.7 31.2 0 59 14.9 76.7 37.9v-10c0-75.9 61.7-137.6 137.6-137.6 75.9 0 137.6 61.7 137.6 137.6v10c17.7-23 45.5-37.9 76.7-37.9 53.3 0 96.7 43.4 96.7 96.7v3.3c10.2-4.2 21-6.4 32.2-6.4 46.8 0 85 38.1 85 85v6.7c0 46.8-38.1 85-85 85-11.1 0-22-2.2-32.2-6.4v3.3c0 53.3-43.4 96.7-96.7 96.7-31.2 0-59-14.9-76.7-37.9v10c0 75.9-61.8 137.6-137.6 137.6zM397.1 429.2V498c0 64.8 52.8 117.6 117.6 117.6S632.3 562.8 632.3 498v-68.8c0-5.5 4.5-10 10-10s10 4.5 10 10c0 42.3 34.4 76.7 76.7 76.7 42.3 0 76.7-34.4 76.7-76.7v-20.1c0-3.7 2.1-7.1 5.3-8.8 3.3-1.7 7.3-1.5 10.3 0.6 10.9 7.4 23.5 11.4 36.5 11.4 35.8 0 65-29.1 65-65v-6.7c0-35.8-29.1-65-65-65-13 0-25.7 3.9-36.5 11.4-3.1 2.1-7 2.3-10.3 0.6-3.3-1.7-5.3-5.1-5.3-8.8v-20.1c0-42.3-34.4-76.7-76.7-76.7-42.3 0-76.7 34.4-76.7 76.7 0 5.5-4.5 10-10 10s-10-4.5-10-10v-68.8c0-64.8-52.8-117.6-117.6-117.6s-117.6 52.8-117.6 117.6v68.8c0 5.5-4.5 10-10 10s-10-4.5-10-10c0-42.3-34.4-76.7-76.7-76.7s-76.7 34.4-76.7 76.7v23.9c0 3.9-2.2 7.4-5.7 9-3.5 1.7-7.6 1.2-10.6-1.3-11.9-9.7-25.9-14.8-40.6-14.8-35.8 0-65 29.1-65 65v6.7c0 35.8 29.1 65 65 65 14.6 0 28.6-5.1 40.6-14.8 3-2.4 7.1-2.9 10.6-1.3s5.7 5.2 5.7 9V429c0 42.3 34.4 76.7 76.7 76.7s76.7-34.4 76.7-76.7c0-5.5 4.5-10 10-10s10 4.7 10 10.2z" fill="#231815" /><path d="M361.9 685.2m-50 0a50 50 0 1 0 100 0 50 50 0 1 0-100 0Z" fill="#231815" /><path d="M351.2 670.3m-20 0a20 20 0 1 0 40 0 20 20 0 1 0-40 0Z" fill="#FFFFFF" /><path d="M371.2 710.6m-10.5 0a10.5 10.5 0 1 0 21 0 10.5 10.5 0 1 0-21 0Z" fill="#FFFFFF" /><path d="M316.1 682.3c-21.2 0-37.7-11.9-37.7-27.1 0-5.5 4.5-10 10-10s10 4.5 10 10c0 1.8 6.1 7.1 17.7 7.1 5.5 0 10 4.5 10 10s-4.5 10-10 10z" fill="#231815" /><path d="M662.8 685.2m-50 0a50 50 0 1 0 100 0 50 50 0 1 0-100 0Z" fill="#231815" /><path d="M673.5 670.3m-20 0a20 20 0 1 0 40 0 20 20 0 1 0-40 0Z" fill="#FFFFFF" /><path d="M653.5 710.6m-10.5 0a10.5 10.5 0 1 0 21 0 10.5 10.5 0 1 0-21 0Z" fill="#FFFFFF" /><path d="M708.5 682.3c-5.5 0-10-4.5-10-10s4.5-10 10-10c11.6 0 17.7-5.3 17.7-7.1 0-5.5 4.5-10 10-10s10 4.5 10 10c0.1 15.2-16.5 27.1-37.7 27.1z" fill="#231815" /><path d="M461.9 795.1a50.4 37.3 0 1 0 100.8 0 50.4 37.3 0 1 0-100.8 0Z"  /><path d="M512.3 868.5c-5.5 0-10-4.5-10-10v-26.1c0-5.5 4.5-10 10-10s10 4.5 10 10v26.1c0 5.6-4.4 10-10 10z" fill="#231815" /></svg>