<?xml version="1.0" standalone="no"?><!DOCTYPE svg PUBLIC "-//W3C//DTD SVG 1.1//EN" "http://www.w3.org/Graphics/SVG/1.1/DTD/svg11.dtd"><svg class="icon" width="200px" height="200.00px" viewBox="0 0 1024 1024" version="1.1" xmlns="http://www.w3.org/2000/svg"><path d="M312.2 363.2c-50.9 38.6-124.1 28.5-162.7-22.5l-56.7-74.9c-38.6-50.9-28.5-124.1 22.5-162.7 50.9-38.6 124.1-28.5 162.7 22.5l56.7 74.9c38.6 50.9 28.5 124.1-22.5 162.7z" fill="#F4BF56" /><path d="M242.5 396.6c-5.9 0-11.7-0.4-17.6-1.2-33.5-4.6-63-21.9-83.3-48.7l-56.7-74.9c-42-55.4-31-134.7 24.4-176.7 26.8-20.3 59.9-28.9 93.4-24.3 33.5 4.6 63 21.9 83.3 48.7l56.7 74.9c20.3 26.8 28.9 59.9 24.3 93.4s-21.9 63-48.7 83.3l-6-8 6 8c-22.1 16.8-48.4 25.5-75.8 25.5zM185 89.7c-23 0-45.2 7.4-63.7 21.4-46.6 35.3-55.9 102-20.5 148.7l56.7 74.9c17 22.5 41.9 37 70.1 40.9 28.2 3.9 56.1-3.4 78.6-20.4 22.5-17 37-41.9 40.9-70.1 3.9-28.2-3.4-56.1-20.4-78.6L270 131.6c-17-22.5-41.9-37-70.1-40.9-5-0.7-9.9-1-14.9-1z"  /><path d="M279.9 320.4c-18.3 13.9-44.6 10.2-58.5-8.1l-66-87.1c-13.9-18.3-10.2-44.6 8.1-58.5 18.3-13.9 44.6-10.2 58.5 8.1l66 87.1c13.8 18.4 10.2 44.7-8.1 58.5z" fill="#542E18" /><path d="M254.8 338.9c-2.4 0-4.8-0.2-7.2-0.5-13.7-1.9-25.9-9-34.2-20l-66-87.1c-8.3-11-11.9-24.6-10-38.3 1.9-13.7 9-25.9 20-34.2 11-8.3 24.6-11.9 38.3-10 13.7 1.9 25.9 9 34.2 20l66 87.1c8.3 11 11.9 24.6 10 38.3-1.9 13.7-9 25.9-20 34.2-9 6.9-19.9 10.5-31.1 10.5z m-66.1-170.5c-6.7 0-13.4 2.1-19.1 6.4-6.7 5.1-11.1 12.5-12.2 21-1.2 8.4 1 16.8 6.1 23.5l66 87.1c5.1 6.7 12.5 11.1 21 12.2 8.4 1.2 16.8-1 23.5-6.1 6.7-5.1 11.1-12.5 12.2-21 1.2-8.4-1-16.8-6.1-23.5l-66-87.1c-6.3-8.2-15.8-12.5-25.4-12.5z" fill="#231815" /><path d="M710.4 363.2c50.9 38.6 124.1 28.5 162.7-22.5l56.7-74.9c38.6-50.9 28.5-124.1-22.5-162.7-50.9-38.6-124.1-28.5-162.7 22.5L688 200.5c-38.6 50.9-28.5 124.1 22.4 162.7z" fill="#F4BF56" /><path d="M780.1 396.6c-27.3 0-53.7-8.8-75.7-25.5-55.4-42-66.4-121.2-24.4-176.7l56.7-74.9c42-55.4 121.2-66.4 176.7-24.4 55.4 42 66.4 121.2 24.4 176.7l-56.7 74.9c-20.3 26.8-49.8 44-83.3 48.7-5.9 0.8-11.8 1.2-17.7 1.2z m57.3-307c-32.1 0-63.9 14.5-84.7 42L696 206.5c-35.3 46.6-26.1 113.3 20.5 148.7 22.5 17 50.4 24.3 78.6 20.4 28.2-3.9 53.1-18.4 70.1-40.9l56.7-74.9c35.3-46.6 26.1-113.3-20.5-148.7-19.2-14.5-41.7-21.5-64-21.5z"  /><path d="M742.8 320.4c18.3 13.9 44.6 10.2 58.5-8.1l66-87.1c13.9-18.3 10.2-44.6-8.1-58.5-18.3-13.9-44.6-10.2-58.5 8.1l-66 87.1c-13.8 18.4-10.2 44.7 8.1 58.5z" fill="#542E18" /><path d="M767.8 338.9c-11.2 0-22-3.6-31.1-10.5-11-8.3-18.1-20.5-20-34.2s1.6-27.3 10-38.3l66-87.1c17.2-22.7 49.7-27.2 72.5-10 11 8.3 18.1 20.4 20 34.2 1.9 13.7-1.6 27.3-10 38.3l-66 87.1c-8.3 11-20.5 18.1-34.2 20-2.4 0.3-4.8 0.5-7.2 0.5zM834 168.4c-9.6 0-19.1 4.3-25.3 12.6l-66 87.1c-10.6 13.9-7.8 33.9 6.1 44.5 6.7 5.1 15.1 7.3 23.5 6.1 8.4-1.2 15.9-5.5 21-12.2l66-87.1c5.1-6.7 7.3-15.1 6.1-23.5-1.2-8.4-5.5-15.9-12.2-21-5.8-4.4-12.5-6.5-19.2-6.5z" fill="#231815" /><path d="M490.8 392.9a20.5 19.6 0 1 0 41 0 20.5 19.6 0 1 0-41 0Z" fill="#FFFFFF" /><path d="M885.8 494.2c0.3-6.3 0.5-12.7 0.5-19.1 0-199.6-163.3-377.4-362.9-377.4h-24.2c-199.6 0-362.9 177.8-362.9 377.4 0 6.4 0.2 12.8 0.5 19.1-58.1 46-92.4 74-92.4 135.7 0 152.3 209 319.3 466.9 319.3s466.9-167 466.9-319.3c0-61.7-34.3-89.7-92.4-135.7z" fill="#F4BF56" /><path d="M511.3 959.3c-63.1 0-125.3-9.7-184.8-29-55.7-18-106.6-43.4-151.2-75.5-42.9-30.8-78.4-67.3-102.6-105.3-25-39.3-38.3-80.6-38.3-119.5 0-65.8 36.5-96.2 92.2-140.4-0.2-4.9-0.3-9.7-0.3-14.5 0-50.2 9.9-99.6 29.4-147 18.9-45.9 45.8-87.4 80-123.4 34.5-36.4 74.3-65 118.5-85.2 46.3-21.1 95.1-31.8 145.1-31.8h24.2c50 0 98.8 10.7 145.1 31.8 44.2 20.1 84 48.8 118.5 85.2 34.2 36 61.1 77.6 80 123.4 19.5 47.3 29.4 96.8 29.4 147 0 4.7-0.1 9.6-0.3 14.5 55.7 44.1 92.2 74.6 92.2 140.4 0 38.9-13.2 80.2-38.3 119.5-24.3 38.1-59.8 74.5-102.7 105.4-44.6 32.1-95.5 57.5-151.2 75.5-59.6 19.1-121.7 28.9-184.9 28.9z m-12.1-851.6c-47.1 0-93.1 10.1-136.8 30-41.8 19.1-79.6 46.2-112.3 80.7-32.5 34.2-58 73.7-76 117.3-18.5 44.9-27.9 91.8-27.9 139.4 0 6 0.2 12.3 0.5 18.6l0.3 5.2-4.1 3.2c-27.3 21.6-50.8 40.2-66.3 60.2S54.2 603.1 54.2 630c0 35.1 12.1 72.7 35.1 108.8 22.9 36 56.6 70.5 97.5 99.9 42.9 30.9 91.9 55.3 145.6 72.7 57.5 18.6 117.6 28 178.7 28 61 0 121.1-9.4 178.7-28 53.7-17.4 102.7-41.8 145.6-72.7 40.9-29.4 74.6-63.9 97.5-99.9 23-36.1 35.1-73.7 35.1-108.8 0-26.8-6.9-47.7-22.4-67.7-15.5-20-39-38.6-66.3-60.2l-4.1-3.2 0.3-5.2c0.3-6.3 0.5-12.6 0.5-18.6 0-47.6-9.4-94.4-27.9-139.4-18-43.6-43.5-83.1-76-117.3-32.7-34.5-70.5-61.7-112.3-80.7-43.6-19.9-89.6-30-136.8-30h-23.8z"  /><path d="M365.1 509.2m-53.2 0a53.2 53.2 0 1 0 106.4 0 53.2 53.2 0 1 0-106.4 0Z" fill="#231815" /><path d="M319.2 496.3a20.5 19.6 0 1 0 41 0 20.5 19.6 0 1 0-41 0Z" fill="#FFFFFF" /><path d="M657.6 509.2m-53.2 0a53.2 53.2 0 1 0 106.4 0 53.2 53.2 0 1 0-106.4 0Z" fill="#231815" /><path d="M611.8 496.3a20.5 19.6 0 1 0 41 0 20.5 19.6 0 1 0-41 0Z" fill="#FFFFFF" /><path d="M430.1 698.9a81.2 67.7 0 1 0 162.4 0 81.2 67.7 0 1 0-162.4 0Z"  /><path d="M571.6 853.3c-18.1 0-35.1-5.3-47.9-14.9-14.4-10.9-22.4-26.6-22.4-44.3 0-5.5 4.5-10 10-10s10 4.5 10 10c0 25.8 25.3 39.3 50.2 39.3 25.7 0 46.6-20.9 46.6-46.6 0-5.5 4.5-10 10-10s10 4.5 10 10c0.1 36.6-29.8 66.5-66.5 66.5z"  /><path d="M451.1 853.3c-36.7 0-66.6-29.9-66.6-66.6 0-5.5 4.5-10 10-10s10 4.5 10 10c0 25.7 20.9 46.6 46.6 46.6 25 0 50.2-13.5 50.2-39.3v-63.7c0-5.5 4.5-10 10-10s10 4.5 10 10V794c0 17.7-7.9 33.5-22.4 44.3-12.7 9.7-29.7 15-47.8 15z"  /><path d="M620.4 226.5c-1.6 0-3.2-0.4-4.7-1.2-31.9-16.9-68-25.8-104.4-25.8-36.4 0-72.5 8.9-104.4 25.8-4.9 2.6-10.9 0.7-13.5-4.2-2.6-4.9-0.7-10.9 4.2-13.5 34.8-18.4 74.1-28.1 113.7-28.1 39.6 0 78.9 9.7 113.7 28.1 4.9 2.6 6.8 8.6 4.2 13.5-1.7 3.5-5.2 5.4-8.8 5.4zM585.8 273.3c-1.4 0-2.8-0.3-4.2-0.9-22.1-10.3-45.7-15.5-70.2-15.5s-48.2 5.2-70.2 15.5c-5 2.3-11 0.2-13.3-4.9-2.3-5-0.2-11 4.9-13.3 24.7-11.5 51.2-17.3 78.7-17.3s53.9 5.8 78.7 17.3c5 2.3 7.2 8.3 4.9 13.3-1.9 3.6-5.6 5.8-9.3 5.8zM551.5 319.6c-1.1 0-2.2-0.2-3.3-0.6-11.8-4.2-24.2-6.3-36.8-6.3s-25 2.1-36.8 6.3c-5.2 1.8-10.9-0.9-12.8-6.1-1.8-5.2 0.9-10.9 6.1-12.8 13.9-4.9 28.6-7.4 43.5-7.4 14.9 0 29.5 2.5 43.5 7.4 5.2 1.8 7.9 7.5 6.1 12.8-1.5 4.1-5.4 6.7-9.5 6.7z"  /><path d="M501.3 97.7h20v208.4h-20z"  /><path d="M239.7 598.8c-1.3 0-2.6-0.3-3.9-0.8-26.8-11.5-93.8-88.5-101.3-97.2-3.6-4.2-3.1-10.5 1-14.1 4.2-3.6 10.5-3.1 14.1 1 27.4 31.7 77.1 84.7 94.1 91.9 5.1 2.2 7.4 8.1 5.3 13.1-1.8 3.8-5.5 6.1-9.3 6.1zM221.5 693.1h-0.6c-67.4-3.7-165.4-72.9-169.5-75.9-4.5-3.2-5.6-9.4-2.4-13.9 3.2-4.5 9.4-5.6 13.9-2.4 1 0.7 97.4 68.8 159 72.2 5.5 0.3 9.7 5 9.4 10.5-0.1 5.4-4.5 9.5-9.8 9.5z"  /><path d="M783 598.8c-3.9 0-7.6-2.3-9.2-6.1-2.2-5.1 0.2-11 5.3-13.1 17-7.3 66.7-60.2 94-91.9 3.6-4.2 9.9-4.6 14.1-1 4.2 3.6 4.6 9.9 1 14.1-7.6 8.7-74.6 85.8-101.3 97.2-1.2 0.5-2.6 0.8-3.9 0.8zM801.1 693.1c-5.3 0-9.7-4.1-10-9.4-0.3-5.5 3.9-10.2 9.4-10.5 61.7-3.4 158.1-71.5 159-72.2 4.5-3.2 10.7-2.1 13.9 2.4 3.2 4.5 2.1 10.7-2.4 13.9-4.1 2.9-102.1 72.1-169.5 75.9 0-0.1-0.2-0.1-0.4-0.1z"  /></svg>